<svg id="svg" version="1.1" xmlns="http://www.w3.org/2000/svg" xmlns:xlink="http://www.w3.org/1999/xlink" width="400" height="426.9141531322506" viewBox="0, 0, 400,426.9141531322506"><g id="svgg"><path id="path0" d="M75.846 134.224 C 74.699 137.214,76.328 147.963,78.773 153.542 C 85.262 168.345,85.631 178.510,80.236 193.824 C 77.685 201.062,76.861 205.811,76.700 214.200 L 76.600 219.400 84.400 219.400 L 92.200 219.400 92.466 212.600 C 92.817 203.601,93.559 199.367,96.005 192.399 C 100.922 178.386,100.918 171.291,95.982 158.838 C 92.508 150.073,91.524 145.877,91.377 139.200 L 91.258 133.800 83.675 133.692 C 77.023 133.596,76.062 133.662,75.846 134.224 M99.850 134.850 C 98.883 139.683,100.233 147.075,103.639 155.599 C 108.704 168.277,109.306 180.389,105.381 190.642 C 101.799 199.998,100.409 207.496,100.402 217.500 L 100.400 219.600 108.153 219.600 C 117.241 219.600,116.384 220.223,116.398 213.600 C 116.414 205.800,117.732 198.291,120.242 191.698 C 124.873 179.531,124.741 170.507,119.749 158.109 C 116.447 149.909,115.950 147.696,115.705 140.100 L 115.496 133.600 107.798 133.600 L 100.100 133.600 99.850 134.850 M123.780 136.245 C 123.183 141.819,124.557 148.175,128.242 156.888 C 130.718 162.742,131.657 167.005,131.887 173.439 C 132.190 181.904,131.805 183.837,127.181 197.080 C 126.088 200.209,124.869 208.044,124.558 213.947 L 124.280 219.200 126.336 219.200 C 128.730 219.200,128.928 218.932,138.272 203.088 C 138.892 202.036,140.049 200.146,140.843 198.888 C 141.637 197.629,143.968 193.810,146.023 190.400 C 148.078 186.990,151.780 180.870,154.249 176.800 C 156.719 172.730,160.096 167.150,161.754 164.400 C 163.413 161.650,166.743 156.160,169.154 152.200 C 171.566 148.240,174.666 143.110,176.042 140.800 C 177.419 138.490,178.872 136.171,179.273 135.646 C 180.908 133.502,182.212 133.600,152.032 133.600 L 124.064 133.600 123.780 136.245 M64.713 135.575 C 58.856 137.865,53.325 144.620,51.972 151.133 C 51.502 153.399,52.127 218.434,52.627 219.243 C 52.748 219.439,56.232 219.600,60.368 219.600 L 67.889 219.600 68.141 217.500 C 68.280 216.345,68.395 213.749,68.397 211.732 C 68.401 207.091,70.024 197.409,71.406 193.775 C 76.965 179.162,77.027 169.874,71.646 157.955 C 68.683 151.392,66.778 142.131,67.292 136.786 C 67.508 134.531,67.451 134.505,64.713 135.575 M185.953 140.515 C 184.498 142.982,179.925 150.580,175.793 157.400 C 171.660 164.220,167.793 170.610,167.200 171.600 C 166.607 172.590,164.090 176.730,161.607 180.800 C 152.372 195.939,148.167 202.863,146.967 204.903 C 146.289 206.056,144.174 209.550,142.267 212.666 C 137.689 220.150,137.809 219.600,140.757 219.600 L 143.200 219.600 143.200 222.400 L 143.200 225.200 146.979 225.200 C 158.327 225.200,166.495 232.639,167.090 243.516 C 167.786 256.255,160.302 264.409,147.238 265.143 L 142.677 265.400 141.580 269.800 C 136.455 290.360,119.429 303.405,96.475 304.362 L 90.751 304.600 102.075 315.970 C 108.304 322.223,113.966 327.851,114.658 328.475 L 115.916 329.609 116.401 326.195 C 120.154 299.753,168.805 289.087,187.684 310.567 L 188.767 311.800 188.784 223.900 C 188.793 175.555,188.755 136.007,188.700 136.015 C 188.645 136.023,187.409 138.048,185.953 140.515 M197.200 210.426 L 197.200 284.052 200.700 285.682 C 240.209 304.089,291.105 283.580,302.462 244.677 L 303.374 241.554 252.187 190.402 C 207.774 146.019,198.349 136.800,197.388 136.800 C 197.285 136.800,197.200 169.932,197.200 210.426 M223.228 173.902 C 234.141 180.149,229.766 195.601,217.085 195.600 C 210.703 195.599,205.200 190.228,205.200 184.000 C 205.200 175.257,215.508 169.483,223.228 173.902 M238.800 204.459 C 252.016 210.642,249.276 229.247,234.807 231.569 C 219.500 234.026,210.667 215.558,222.688 206.230 C 226.920 202.946,233.922 202.177,238.800 204.459 M143.600 245.200 L 143.600 256.800 146.729 256.800 C 154.152 256.800,158.389 252.963,158.732 245.927 C 159.111 238.166,154.813 233.613,147.100 233.604 L 143.600 233.600 143.600 245.200 M253.315 239.010 C 265.543 240.339,272.964 255.124,266.634 265.544 C 254.827 284.981,223.473 271.200,231.823 250.243 C 234.509 243.502,243.725 237.683,250.200 238.640 C 250.640 238.705,252.042 238.871,253.315 239.010 M309.227 250.836 C 299.833 276.814,272.986 296.904,242.928 300.449 C 238.623 300.957,222.004 300.684,219.400 300.063 C 218.520 299.853,215.917 299.283,213.615 298.796 C 209.502 297.926,200.982 295.135,198.464 293.833 L 197.183 293.171 197.291 301.033 L 197.400 308.895 199.400 309.689 C 214.450 315.663,239.458 316.728,257.776 312.174 C 282.876 305.933,304.769 290.388,317.097 270.052 C 320.078 265.135,317.908 256.705,312.008 250.290 L 310.154 248.273 309.227 250.836 M316.102 285.700 C 304.284 300.202,285.394 312.648,266.400 318.447 C 258.473 320.867,246.323 323.200,241.649 323.200 C 239.645 323.200,240.429 323.667,245.000 325.195 C 250.942 327.181,256.762 330.417,264.800 336.205 C 270.309 340.172,271.351 340.247,278.600 337.191 C 294.367 330.545,306.821 334.113,316.668 348.097 L 318.400 350.556 318.400 316.878 C 318.400 298.355,318.341 283.200,318.270 283.200 C 318.198 283.200,317.223 284.325,316.102 285.700 M151.400 307.634 C 140.692 308.895,129.939 315.038,126.457 321.883 L 125.601 323.567 127.300 324.549 C 135.699 329.401,144.753 329.319,152.065 324.324 C 159.963 318.929,173.724 319.244,183.624 325.046 C 186.555 326.763,186.545 326.765,186.210 324.500 C 184.592 313.544,168.289 305.645,151.400 307.634 M197.200 329.078 L 197.200 340.157 198.371 338.310 C 202.662 331.545,211.639 325.199,219.264 323.543 C 221.792 322.994,221.856 323.020,216.000 322.217 C 210.349 321.443,208.702 321.093,202.545 319.364 C 199.875 318.614,197.580 318.000,197.445 318.000 C 197.310 318.000,197.200 322.985,197.200 329.078 M162.201 329.243 C 160.040 329.774,157.707 330.768,155.016 332.305 C 146.259 337.307,137.363 337.861,127.976 333.990 C 124.874 332.711,124.780 332.798,126.214 335.627 C 134.414 351.810,168.939 352.984,182.167 337.530 C 184.359 334.969,184.174 334.694,178.200 331.667 C 172.116 328.584,167.645 327.907,162.201 329.243 " stroke="none" fill="#139ab4" fill-rule="evenodd"></path><path id="path1" d="M174.800 21.435 C 168.631 21.939,160.800 22.956,160.800 23.251 C 160.800 23.443,160.353 23.600,159.806 23.600 C 158.525 23.600,149.126 25.580,148.600 25.960 C 148.380 26.119,147.210 26.480,146.000 26.762 C 143.086 27.441,139.450 28.525,139.200 28.790 C 139.090 28.907,137.200 29.610,135.000 30.353 C 132.800 31.095,130.910 31.824,130.800 31.972 C 130.690 32.120,129.700 32.574,128.600 32.981 C 126.299 33.833,119.520 37.112,119.209 37.523 C 119.094 37.676,117.830 38.384,116.400 39.098 C 113.646 40.474,113.505 40.557,109.931 42.900 C 108.673 43.725,107.536 44.400,107.405 44.400 C 107.048 44.400,99.325 50.040,96.741 52.187 C 95.939 52.854,94.499 54.029,93.541 54.798 C 91.650 56.316,79.473 68.480,77.447 70.873 C 76.761 71.684,75.801 72.854,75.313 73.473 C 74.825 74.093,73.884 75.230,73.224 76.000 C 71.866 77.582,68.665 81.948,67.664 83.586 C 66.918 84.805,65.182 87.497,63.786 89.600 C 62.910 90.919,61.496 93.473,59.355 97.600 C 58.842 98.590,58.282 99.580,58.111 99.800 C 57.546 100.526,56.000 104.011,56.000 104.557 C 56.000 104.851,55.667 105.521,55.259 106.046 C 54.852 106.571,54.109 108.260,53.608 109.800 C 53.107 111.340,52.377 113.320,51.986 114.200 C 51.595 115.080,50.863 117.240,50.359 119.000 C 49.855 120.760,49.319 122.290,49.167 122.400 C 49.015 122.510,48.411 124.850,47.824 127.600 C 47.236 130.350,46.577 132.927,46.358 133.326 C 46.139 133.726,45.595 136.786,45.149 140.126 C 44.703 143.467,44.045 147.460,43.687 149.000 C 42.864 152.535,42.916 225.350,43.742 226.361 C 44.062 226.753,44.279 232.357,44.464 244.961 C 44.720 262.513,44.926 265.347,46.145 268.123 C 46.454 268.825,46.941 270.013,47.227 270.762 C 48.714 274.648,52.151 278.217,111.003 337.000 C 175.904 401.826,172.019 398.040,175.186 399.547 C 176.404 400.126,177.503 400.738,177.628 400.908 C 177.754 401.077,179.104 401.615,180.628 402.102 L 183.400 402.989 241.600 403.111 C 281.938 403.195,300.598 403.100,302.400 402.801 C 305.256 402.326,308.886 401.251,309.200 400.786 C 309.310 400.623,310.109 400.195,310.975 399.834 C 313.569 398.754,320.400 393.120,320.400 392.060 C 320.400 391.913,320.817 391.342,321.326 390.793 C 325.167 386.651,326.800 379.963,326.800 368.374 C 326.800 360.831,326.884 359.600,327.402 359.600 C 327.936 359.600,327.986 348.506,327.849 260.500 C 327.695 161.210,327.592 153.765,326.235 143.353 C 325.186 135.312,325.100 134.800,324.800 134.800 C 324.640 134.800,324.392 133.948,324.249 132.907 C 323.889 130.277,321.951 122.243,321.619 122.000 C 321.468 121.890,320.841 120.000,320.224 117.800 C 319.607 115.600,318.971 113.710,318.810 113.600 C 318.649 113.490,318.197 112.410,317.804 111.200 C 317.411 109.990,316.641 108.105,316.093 107.012 C 315.545 105.918,314.679 103.938,314.168 102.612 C 313.657 101.285,313.229 100.380,313.216 100.600 C 313.203 100.820,312.612 99.740,311.902 98.200 C 311.191 96.660,310.395 95.174,310.131 94.898 C 309.868 94.621,309.526 93.991,309.371 93.498 C 309.216 93.004,308.304 91.395,307.344 89.921 C 306.385 88.448,305.600 87.084,305.600 86.891 C 305.600 86.698,305.150 86.117,304.600 85.600 C 304.050 85.083,303.600 84.484,303.600 84.267 C 303.600 84.051,302.904 82.957,302.053 81.837 C 301.202 80.717,300.167 79.269,299.754 78.619 C 299.341 77.970,298.642 77.054,298.201 76.583 C 297.761 76.112,296.516 74.604,295.436 73.232 C 293.090 70.251,289.958 66.797,286.362 63.222 C 282.109 58.995,278.474 55.600,278.202 55.600 C 278.062 55.600,277.494 55.060,276.939 54.400 C 276.383 53.740,275.757 53.200,275.547 53.200 C 275.109 53.200,270.268 49.264,270.067 48.744 C 269.993 48.555,269.761 48.400,269.550 48.400 C 269.111 48.400,267.099 47.018,265.619 45.700 C 265.063 45.205,264.476 44.800,264.314 44.800 C 264.152 44.800,262.811 43.990,261.335 43.000 C 259.859 42.010,258.437 41.200,258.175 41.200 C 257.912 41.200,257.485 40.943,257.225 40.630 C 256.964 40.316,256.087 39.716,255.276 39.295 C 254.464 38.875,251.494 37.332,248.675 35.866 C 245.857 34.399,243.382 33.200,243.176 33.200 C 242.971 33.200,241.677 32.674,240.301 32.030 C 238.925 31.387,236.810 30.549,235.600 30.169 C 234.390 29.789,233.203 29.327,232.963 29.142 C 232.723 28.958,232.398 28.935,232.241 29.092 C 232.085 29.249,231.831 29.177,231.678 28.933 C 231.407 28.501,227.216 27.150,224.400 26.587 C 223.630 26.434,222.806 26.152,222.569 25.962 C 222.332 25.772,219.632 25.142,216.569 24.562 C 213.506 23.983,210.640 23.356,210.200 23.169 C 207.406 21.985,182.801 20.780,174.800 21.435 M192.200 29.581 C 240.790 32.165,283.284 60.171,305.569 104.298 C 307.957 109.026,312.086 119.120,311.916 119.811 C 311.799 120.283,306.064 117.866,258.000 97.087 C 250.630 93.901,244.060 91.055,243.400 90.763 C 242.740 90.471,241.579 89.704,240.820 89.058 C 237.523 86.254,232.507 85.433,228.000 86.962 C 225.963 87.653,224.755 88.748,211.681 101.754 C 195.582 117.770,195.452 117.941,195.326 123.391 C 195.285 125.147,195.094 126.635,194.902 126.699 C 194.022 126.993,189.806 125.680,189.934 125.152 C 190.007 124.849,190.362 123.520,190.723 122.200 C 191.653 118.794,191.633 109.136,190.689 105.665 C 187.100 92.481,178.428 83.443,165.411 79.317 L 164.221 78.940 164.340 74.170 C 164.729 58.494,155.415 44.644,140.931 39.362 C 139.309 38.770,138.046 38.221,138.126 38.141 C 139.100 37.166,154.627 32.797,161.200 31.647 C 170.144 30.083,173.683 29.718,184.200 29.271 C 184.860 29.243,188.460 29.383,192.200 29.581 M133.810 45.582 C 147.227 48.281,156.486 59.604,156.466 73.290 C 156.459 78.113,156.678 77.830,152.714 78.135 C 144.690 78.753,136.674 82.379,130.610 88.132 C 127.775 90.822,128.625 90.822,125.790 88.132 C 119.600 82.257,109.989 78.076,102.532 78.014 L 100.864 78.000 100.579 75.343 C 99.514 65.395,103.799 56.760,112.600 51.123 C 122.541 44.755,125.655 43.942,133.810 45.582 M92.800 72.968 L 92.800 78.736 90.700 79.419 C 84.854 81.323,81.412 83.263,76.684 87.319 C 73.542 90.016,73.602 89.766,77.337 84.600 C 81.341 79.063,91.800 67.200,92.679 67.200 C 92.745 67.200,92.800 69.796,92.800 72.968 M106.874 86.610 C 112.324 87.746,118.358 91.327,121.901 95.528 L 123.588 97.529 122.644 99.664 C 119.403 106.999,118.855 118.267,121.415 124.900 C 121.671 125.562,120.416 125.600,98.472 125.600 L 75.257 125.600 74.425 123.376 C 66.794 102.979,85.223 82.098,106.874 86.610 M161.800 86.606 C 178.073 90.048,188.173 109.008,181.826 124.199 L 181.241 125.600 155.676 125.600 L 130.111 125.600 129.266 123.391 C 121.531 103.179,140.225 82.043,161.800 86.606 M234.600 95.179 C 236.597 95.610,255.767 113.842,260.840 120.136 C 264.006 124.065,264.521 123.266,248.494 139.294 L 234.587 153.200 232.600 153.200 L 230.613 153.200 216.906 139.494 L 203.200 125.787 203.200 123.600 L 203.200 121.413 216.758 107.855 C 231.800 92.814,229.897 94.166,234.600 95.179 M66.605 102.700 C 64.733 107.377,64.390 115.559,65.804 121.793 C 66.352 124.209,66.800 126.219,66.800 126.260 C 66.800 126.301,65.405 126.799,63.700 127.368 C 61.995 127.937,59.543 129.039,58.251 129.818 C 56.959 130.598,55.819 131.152,55.718 131.051 C 54.905 130.239,61.289 112.429,65.092 104.900 C 66.434 102.242,67.282 101.010,66.605 102.700 M259.966 106.383 C 260.810 106.813,262.378 107.513,263.450 107.938 C 264.523 108.364,269.000 110.281,273.400 112.199 C 277.800 114.116,282.390 116.098,283.600 116.602 C 284.810 117.106,287.420 118.231,289.400 119.102 C 291.380 119.974,297.410 122.582,302.800 124.898 C 308.190 127.214,313.231 129.412,314.001 129.782 C 316.280 130.875,318.311 141.359,319.193 156.575 C 319.650 164.470,319.749 246.000,319.301 246.000 C 318.927 246.000,234.400 161.503,234.400 161.129 C 234.400 160.979,235.389 160.569,236.599 160.218 C 239.376 159.410,239.962 158.888,255.261 143.588 C 269.519 129.329,269.786 128.963,269.794 123.600 C 269.802 118.767,269.043 117.416,262.657 110.900 C 257.483 105.621,257.050 104.895,259.966 106.383 M228.122 106.972 C 216.723 109.735,211.758 124.342,218.980 133.869 C 228.070 145.860,247.773 140.911,249.545 126.191 C 251.075 113.481,240.480 103.976,228.122 106.972 M237.445 112.778 C 242.334 114.937,245.262 120.478,244.226 125.611 C 242.035 136.473,228.352 138.941,222.521 129.525 C 216.531 119.854,226.963 108.148,237.445 112.778 M229.200 117.980 C 226.099 119.631,225.132 124.463,227.327 127.340 C 231.253 132.487,238.967 130.009,238.982 123.597 C 238.993 118.429,233.876 115.492,229.200 117.980 M91.816 138.700 C 91.839 146.006,92.894 150.423,96.954 160.200 C 101.184 170.385,101.077 180.064,96.606 191.640 C 93.925 198.581,93.109 204.046,92.414 219.708 C 92.406 219.878,88.755 219.968,84.300 219.908 L 76.200 219.800 76.315 213.400 C 76.448 205.985,77.279 201.132,79.467 195.000 C 85.120 179.151,85.008 170.269,78.961 154.893 C 75.665 146.513,74.475 139.723,75.450 134.850 L 75.700 133.600 83.750 133.600 L 91.800 133.600 91.816 138.700 M115.860 139.300 C 115.925 145.463,116.880 150.252,119.071 155.400 C 125.163 169.714,125.596 177.536,121.006 190.400 C 118.307 197.964,117.293 203.363,116.801 212.800 C 116.600 216.650,116.428 219.849,116.418 219.908 C 116.408 219.968,112.755 219.968,108.300 219.908 L 100.200 219.800 100.277 214.600 C 100.392 206.743,101.482 199.902,103.398 195.000 C 109.055 180.526,109.008 168.317,103.246 155.555 C 100.112 148.614,98.457 139.884,99.362 135.064 L 99.636 133.600 107.718 133.600 L 115.800 133.601 115.860 139.300 M179.723 135.500 C 179.112 136.545,177.681 138.930,176.543 140.800 C 175.404 142.670,173.277 146.180,171.814 148.600 C 170.352 151.020,167.182 156.240,164.770 160.200 C 162.357 164.160,158.486 170.550,156.166 174.400 C 153.847 178.250,150.469 183.830,148.660 186.800 C 146.851 189.770,143.463 195.350,141.131 199.200 C 126.910 222.677,128.809 220.000,126.375 220.000 C 123.904 220.000,124.036 220.510,124.426 212.474 C 124.848 203.756,125.480 200.402,128.018 193.399 C 132.661 180.588,132.768 169.633,128.361 158.400 C 125.160 150.242,124.733 148.964,123.970 145.256 C 123.198 141.502,122.982 137.188,123.450 134.850 L 123.700 133.600 152.267 133.600 L 180.834 133.600 179.723 135.500 M67.843 139.101 C 67.902 145.621,68.791 149.712,71.815 157.394 C 76.744 169.912,77.316 178.913,73.777 188.265 C 70.266 197.543,69.289 202.244,68.799 212.200 C 68.594 216.380,68.420 219.845,68.413 219.900 C 68.358 220.324,52.353 219.928,52.219 219.500 C 51.543 217.334,51.156 153.182,51.803 150.600 C 53.492 143.859,57.413 138.923,63.642 135.700 C 67.777 133.560,67.792 133.573,67.843 139.101 M189.013 311.920 C 188.909 312.024,187.725 311.091,186.381 309.847 C 164.257 289.363,119.474 300.824,116.595 327.707 C 116.437 329.188,116.194 330.400,116.056 330.400 C 115.694 330.400,90.000 304.664,90.000 304.302 C 90.000 304.136,92.057 304.000,94.571 304.000 C 114.081 304.000,128.675 295.605,137.682 279.200 C 139.102 276.614,142.000 268.319,142.000 266.840 C 142.000 264.938,142.285 264.800,146.223 264.800 C 156.818 264.800,164.257 259.333,166.211 250.112 C 169.131 236.336,160.592 225.600,146.716 225.600 L 142.800 225.600 142.800 222.800 L 142.800 220.000 140.400 220.000 C 137.072 220.000,136.204 221.899,149.632 199.800 C 152.707 194.740,156.579 188.350,158.236 185.600 C 159.894 182.850,162.730 178.170,164.539 175.200 C 168.462 168.757,173.594 160.289,179.202 151.000 C 181.460 147.260,184.588 142.130,186.154 139.600 L 189.000 135.000 189.101 223.366 C 189.156 271.967,189.117 311.816,189.013 311.920 M199.864 137.961 C 200.929 138.820,224.729 162.469,252.753 190.515 L 303.706 241.508 303.434 242.960 C 302.770 246.497,298.889 254.998,295.655 260.000 C 275.781 290.735,232.503 302.042,198.900 285.280 L 196.800 284.233 196.800 210.316 C 196.800 146.972,196.881 136.400,197.364 136.400 C 197.674 136.400,198.799 137.103,199.864 137.961 M213.282 173.532 C 200.862 177.974,204.128 195.003,217.400 194.998 C 232.590 194.993,233.205 174.020,218.046 172.959 C 216.089 172.822,214.849 172.971,213.282 173.532 M219.326 180.847 C 223.211 182.834,221.610 187.600,217.057 187.600 C 214.035 187.600,212.190 184.420,213.843 182.060 C 214.933 180.503,217.531 179.929,219.326 180.847 M228.500 203.793 C 221.740 205.693,217.472 210.860,217.423 217.200 C 217.313 231.573,237.613 236.808,245.075 224.331 C 251.417 213.725,240.647 200.379,228.500 203.793 M235.996 211.998 C 240.497 214.294,240.421 220.545,235.864 222.870 C 231.052 225.324,225.067 222.293,225.067 217.400 C 225.067 212.324,230.943 209.420,235.996 211.998 M135.110 246.100 L 134.975 264.600 133.884 268.200 C 127.853 288.087,110.067 298.823,87.798 296.020 C 80.322 295.079,81.326 295.764,68.708 282.992 C 52.995 267.086,54.435 270.902,54.414 245.100 L 54.400 227.600 94.822 227.600 L 135.244 227.600 135.110 246.100 M152.434 234.017 C 157.266 236.482,159.000 239.436,159.000 245.200 C 159.000 253.011,154.790 257.200,146.940 257.200 L 143.200 257.200 143.200 245.200 L 143.200 233.200 147.016 233.200 C 150.069 233.200,151.152 233.363,152.434 234.017 M245.800 239.472 C 224.456 244.254,226.814 273.066,248.650 274.298 C 260.389 274.960,268.823 267.052,268.330 255.842 C 267.856 245.036,256.805 237.006,245.800 239.472 M61.774 246.706 C 61.278 247.049,56.400 255.955,56.400 256.519 C 56.400 257.172,61.168 265.875,61.823 266.419 C 62.706 267.152,63.456 266.257,66.159 261.241 C 68.884 256.184,68.905 257.070,65.926 251.569 C 63.677 247.417,62.990 246.412,62.400 246.412 C 62.290 246.412,62.009 246.544,61.774 246.706 M77.469 246.927 C 76.912 247.359,72.000 256.050,72.000 256.604 C 72.000 257.021,77.231 266.372,77.587 266.592 C 78.389 267.087,79.222 266.112,81.443 262.079 C 84.581 256.381,84.487 256.740,83.376 254.741 C 82.844 253.784,81.674 251.619,80.776 249.932 C 79.056 246.697,78.461 246.158,77.469 246.927 M93.379 246.706 C 92.719 247.166,88.000 255.718,88.000 256.454 C 88.000 256.815,88.727 258.436,89.616 260.056 C 90.505 261.675,91.617 263.758,92.088 264.685 C 93.732 267.919,94.418 267.454,97.974 260.694 L 100.149 256.562 97.819 252.181 C 94.869 246.636,94.367 246.017,93.379 246.706 M108.491 247.500 C 108.071 248.105,106.770 250.409,105.600 252.621 L 103.472 256.642 105.758 260.903 C 109.682 268.220,109.602 268.210,113.100 261.808 C 116.137 256.249,116.135 256.915,113.138 251.472 C 110.056 245.875,109.782 245.640,108.491 247.500 M124.910 246.737 C 124.491 247.001,124.163 247.547,120.941 253.358 L 119.190 256.515 121.146 260.158 C 125.659 268.562,125.121 268.474,129.076 261.449 C 131.831 256.556,131.834 256.682,128.817 251.294 C 126.383 246.948,125.749 246.208,124.910 246.737 M254.015 247.405 C 258.519 248.994,260.977 252.630,260.738 257.351 C 260.080 270.382,238.600 269.847,238.600 256.800 C 238.600 249.664,246.599 244.789,254.015 247.405 M315.934 254.937 C 319.526 261.229,319.781 266.705,316.700 271.404 C 292.455 308.380,243.677 324.932,201.000 310.664 L 197.000 309.327 196.892 301.264 C 196.767 292.012,196.430 292.596,200.845 294.424 C 219.740 302.247,244.819 302.361,264.169 294.710 C 284.496 286.673,301.324 270.430,308.172 252.237 C 309.962 247.480,309.762 247.592,312.189 249.989 C 313.350 251.135,315.035 253.362,315.934 254.937 M318.800 317.000 C 318.800 336.030,318.719 351.600,318.619 351.600 C 318.520 351.600,317.604 350.310,316.585 348.734 C 307.655 334.931,293.986 330.798,279.173 337.425 C 271.681 340.776,270.846 340.643,261.800 334.640 C 251.902 328.072,246.795 325.563,241.000 324.419 C 239.680 324.158,238.240 323.841,237.800 323.713 L 237.000 323.482 237.800 323.169 C 238.240 322.997,239.595 322.844,240.810 322.828 C 266.547 322.501,301.047 305.046,316.582 284.493 C 317.452 283.342,318.307 282.400,318.482 282.400 C 318.657 282.400,318.800 297.970,318.800 317.000 M166.380 307.996 C 177.467 310.255,186.800 318.289,186.800 325.574 C 186.800 327.513,186.893 327.495,184.506 326.032 C 173.168 319.082,159.757 319.109,149.863 326.103 C 145.226 329.381,136.220 329.161,128.500 325.582 C 124.718 323.829,124.663 323.684,126.650 320.745 C 133.976 309.909,150.208 304.700,166.380 307.996 M200.637 318.419 C 205.157 319.985,219.750 322.800,223.351 322.800 C 224.492 322.800,222.815 323.347,219.102 324.186 C 210.821 326.057,203.598 331.108,198.953 338.274 C 198.214 339.414,197.427 340.460,197.205 340.597 C 196.935 340.764,196.800 336.960,196.800 329.224 C 196.800 315.942,196.437 316.963,200.637 318.419 M172.862 328.992 C 176.696 330.176,184.400 334.321,184.400 335.199 C 184.400 335.889,179.265 340.997,177.079 342.482 C 161.360 353.157,135.020 350.232,126.439 336.861 C 124.850 334.384,124.314 332.108,125.437 332.601 C 135.786 337.147,146.361 337.226,153.324 332.808 C 157.691 330.037,160.271 329.044,165.200 328.237 C 166.747 327.984,170.934 328.397,172.862 328.992 M236.000 331.216 C 242.624 332.261,248.472 334.945,257.531 341.098 C 268.670 348.665,271.397 349.094,281.334 344.849 C 292.134 340.234,299.028 341.198,306.352 348.346 C 310.373 352.270,314.297 359.797,314.869 364.684 L 315.000 365.800 311.400 365.705 C 309.420 365.652,303.570 365.496,298.400 365.357 L 289.000 365.104 286.901 363.130 C 274.315 351.296,255.272 365.907,262.554 381.811 C 266.869 391.237,279.101 393.664,286.724 386.606 L 289.020 384.481 301.944 384.140 C 309.053 383.953,314.917 383.849,314.977 383.909 C 316.067 385.010,311.071 390.340,306.903 392.523 C 301.608 395.297,304.008 395.185,249.315 395.193 L 200.031 395.200 199.629 393.700 C 198.105 388.017,197.912 386.318,197.717 376.869 C 197.036 343.746,210.867 327.252,236.000 331.216 M191.485 348.700 C 191.369 354.526,191.068 359.167,190.647 361.600 C 189.720 366.966,189.408 376.830,189.988 382.400 C 190.252 384.930,190.567 388.873,190.689 391.163 L 190.910 395.325 188.128 395.092 C 184.730 394.807,181.618 393.793,178.684 392.015 C 176.438 390.654,141.213 355.854,141.645 355.422 C 141.760 355.307,143.192 355.508,144.827 355.869 C 160.120 359.244,181.283 352.395,189.075 341.549 C 191.578 338.064,191.689 338.395,191.485 348.700 M226.972 363.157 C 222.530 365.175,220.802 370.947,223.320 375.358 C 227.608 382.869,239.182 379.754,239.196 371.084 C 239.207 364.687,232.779 360.519,226.972 363.157 M280.800 364.031 C 291.525 368.876,288.983 385.371,277.367 386.304 C 264.747 387.316,260.523 369.247,272.145 363.969 C 274.428 362.932,278.432 362.961,280.800 364.031 " stroke="none" fill="#e3c374" fill-rule="evenodd"></path><path id="path2" d="M229.400 95.564 C 228.960 95.765,223.155 101.398,216.500 108.080 C 199.935 124.714,199.898 122.026,216.928 139.100 L 229.395 151.600 232.800 151.600 L 236.205 151.600 248.502 139.298 L 260.800 126.995 260.800 123.595 L 260.800 120.195 248.500 107.901 L 236.200 95.606 233.200 95.402 C 231.550 95.290,229.840 95.362,229.400 95.564 M237.887 107.004 C 249.952 110.586,253.905 126.030,245.153 135.387 C 236.622 144.506,221.244 141.689,216.629 130.162 C 211.172 116.532,223.768 102.810,237.887 107.004 M228.226 112.784 C 217.066 117.278,219.619 134.007,231.630 135.096 C 244.230 136.239,249.153 118.931,237.877 113.130 C 235.459 111.886,230.865 111.721,228.226 112.784 M236.330 117.881 C 241.804 121.935,239.310 130.114,232.600 130.114 C 227.629 130.114,224.569 125.399,226.515 120.741 C 227.983 117.229,233.341 115.667,236.330 117.881 M216.008 180.846 C 211.950 182.466,213.041 187.200,217.472 187.200 C 221.552 187.200,222.685 182.514,218.981 180.966 C 217.426 180.317,217.344 180.313,216.008 180.846 M228.808 212.100 C 224.255 214.426,223.973 219.679,228.256 222.394 C 234.391 226.286,242.044 219.680,237.993 213.990 C 236.098 211.329,231.976 210.481,228.808 212.100 M54.400 244.541 C 54.400 270.391,53.245 267.278,68.568 282.718 L 79.800 294.036 82.600 294.918 C 85.163 295.725,86.212 295.800,95.000 295.798 L 104.600 295.797 108.400 294.476 C 119.172 290.732,127.035 283.745,131.588 273.869 C 134.791 266.923,135.265 262.830,135.118 243.400 L 135.000 227.800 94.700 227.693 L 54.400 227.586 54.400 244.541 M64.398 248.400 C 64.976 249.390,66.224 251.661,67.173 253.447 L 68.898 256.695 66.149 261.647 C 62.457 268.299,62.367 268.299,58.751 261.655 C 57.121 258.662,56.157 256.458,56.305 256.069 C 56.589 255.330,60.208 248.651,61.071 247.275 C 61.945 245.881,63.171 246.296,64.398 248.400 M79.287 247.100 C 79.623 247.485,80.944 249.784,82.222 252.209 L 84.547 256.617 81.974 261.374 C 79.018 266.836,78.338 267.487,77.139 266.000 C 75.868 264.425,72.000 257.346,72.000 256.597 C 72.000 255.083,77.280 246.400,78.200 246.400 C 78.462 246.400,78.951 246.715,79.287 247.100 M97.619 251.571 L 100.375 256.543 98.734 259.571 C 93.620 269.004,94.178 268.992,89.217 259.778 L 87.482 256.557 89.996 251.978 C 93.978 244.724,93.828 244.732,97.619 251.571 M111.105 247.500 C 111.522 248.105,112.822 250.394,113.992 252.586 L 116.121 256.572 113.997 260.586 C 109.836 268.448,109.747 268.464,106.159 262.000 C 103.050 256.398,103.054 256.794,106.049 251.400 C 109.120 245.869,109.680 245.436,111.105 247.500 M126.237 246.706 C 126.800 247.085,131.600 255.968,131.600 256.632 C 131.600 257.651,126.581 266.386,125.855 266.631 C 124.837 266.974,124.422 266.464,121.627 261.430 C 118.692 256.145,118.691 257.054,121.635 251.770 C 124.794 246.099,124.999 245.873,126.237 246.706 M245.800 247.612 C 236.903 251.041,236.437 261.549,245.000 265.650 C 252.414 269.201,261.566 263.474,260.704 255.823 C 259.980 249.400,252.234 245.133,245.800 247.612 M190.055 340.910 C 189.243 342.225,184.332 347.023,182.092 348.691 C 173.544 355.055,158.280 358.141,144.600 356.272 L 142.200 355.944 159.000 372.792 C 178.840 392.690,181.675 394.800,188.560 394.800 L 190.518 394.800 190.256 391.100 C 190.113 389.065,189.826 385.960,189.619 384.200 C 188.791 377.151,189.277 364.270,190.586 358.600 C 191.240 355.765,191.791 339.600,191.234 339.600 C 191.031 339.600,190.501 340.190,190.055 340.910 " stroke="none" fill="#ac2467" fill-rule="evenodd"></path><path id="path3" d="M263.309 111.124 C 270.207 118.109,271.605 122.250,269.197 128.563 C 267.413 133.240,238.893 160.800,235.837 160.800 C 235.513 160.800,235.157 160.946,235.047 161.124 C 234.937 161.302,253.832 180.427,277.036 203.624 L 319.225 245.800 319.086 198.400 C 318.936 146.906,319.064 150.069,316.614 137.200 C 315.297 130.278,315.433 130.618,313.691 129.900 C 312.240 129.302,304.221 125.831,290.800 119.992 C 287.170 118.412,282.580 116.435,280.600 115.597 C 278.620 114.759,275.560 113.454,273.800 112.696 C 272.040 111.938,268.033 110.211,264.895 108.859 C 261.757 107.506,259.066 106.400,258.916 106.400 C 258.766 106.400,260.742 108.526,263.309 111.124 M260.827 123.400 C 260.826 126.299,260.881 126.527,261.413 125.824 C 262.154 124.844,262.147 122.507,261.400 121.200 C 260.869 120.271,260.828 120.426,260.827 123.400 M203.405 124.392 C 203.173 124.768,203.830 126.400,204.214 126.400 C 204.316 126.400,204.400 125.860,204.400 125.200 C 204.400 124.027,203.888 123.611,203.405 124.392 M229.600 151.790 C 229.600 152.571,232.246 153.253,233.648 152.833 C 236.244 152.055,235.866 151.600,232.624 151.600 C 230.961 151.600,229.600 151.685,229.600 151.790 " stroke="none" fill="#6464ac" fill-rule="evenodd"></path><path id="path4" d="M123.850 45.422 C 118.645 46.456,107.846 53.539,105.048 57.754 C 101.818 62.621,99.988 69.822,100.579 75.343 L 100.864 78.000 102.532 78.014 C 109.989 78.076,119.600 82.257,125.790 88.132 C 128.625 90.822,127.775 90.822,130.610 88.132 C 136.674 82.379,144.690 78.753,152.714 78.135 C 156.678 77.830,156.459 78.113,156.466 73.290 C 156.491 55.814,140.465 42.120,123.850 45.422 M94.400 86.622 C 78.487 90.040,68.694 108.058,74.425 123.376 L 75.257 125.600 98.472 125.600 C 120.416 125.600,121.671 125.562,121.415 124.900 C 118.855 118.267,119.403 106.999,122.644 99.664 L 123.588 97.529 121.901 95.528 C 115.566 88.016,104.538 84.445,94.400 86.622 M149.203 86.648 C 133.340 90.114,123.483 108.280,129.266 123.391 L 130.111 125.600 155.676 125.600 L 181.241 125.600 181.826 124.199 C 190.302 103.914,171.138 81.855,149.203 86.648 " stroke="none" fill="#fbdbcb" fill-rule="evenodd"></path><path id="path5" d="M177.600 29.616 C 165.568 30.272,140.603 35.663,138.126 38.141 C 138.046 38.221,139.309 38.770,140.931 39.362 C 155.415 44.644,164.729 58.494,164.340 74.170 L 164.221 78.940 165.411 79.317 C 178.428 83.443,187.100 92.481,190.689 105.665 C 191.633 109.136,191.653 118.794,190.723 122.200 C 190.362 123.520,190.007 124.849,189.934 125.152 C 189.806 125.680,194.022 126.993,194.902 126.699 C 195.094 126.635,195.285 125.147,195.326 123.391 C 195.452 117.941,195.582 117.770,211.681 101.754 C 224.755 88.748,225.963 87.653,228.000 86.962 C 232.507 85.433,237.523 86.254,240.820 89.058 C 241.579 89.704,242.740 90.471,243.400 90.763 C 244.839 91.400,268.627 101.685,278.200 105.810 C 281.940 107.421,291.030 111.336,298.400 114.510 C 306.592 118.038,311.845 120.098,311.916 119.811 C 312.086 119.120,307.957 109.026,305.569 104.298 C 283.284 60.171,240.790 32.165,192.200 29.581 C 188.460 29.383,184.860 29.243,184.200 29.271 C 183.540 29.299,180.570 29.454,177.600 29.616 M88.547 71.300 C 84.385 75.556,80.808 79.800,77.337 84.600 C 73.602 89.766,73.542 90.016,76.684 87.319 C 81.412 83.263,84.854 81.323,90.700 79.419 L 92.800 78.736 92.800 72.968 C 92.800 69.796,92.745 67.200,92.679 67.200 C 92.612 67.200,90.753 69.045,88.547 71.300 M65.092 104.900 C 61.289 112.429,54.905 130.239,55.718 131.051 C 55.819 131.152,56.959 130.598,58.251 129.818 C 59.543 129.039,61.995 127.937,63.700 127.368 C 65.405 126.799,66.800 126.301,66.800 126.260 C 66.800 126.219,66.352 124.209,65.804 121.793 C 64.390 115.559,64.733 107.377,66.605 102.700 C 67.282 101.010,66.434 102.242,65.092 104.900 M203.500 121.333 C 203.027 122.487,203.117 123.843,203.631 123.329 C 203.868 123.092,204.003 122.381,203.931 121.749 C 203.824 120.806,203.746 120.731,203.500 121.333 M272.145 363.969 C 260.523 369.247,264.747 387.316,277.367 386.304 C 288.983 385.371,291.525 368.876,280.800 364.031 C 278.432 362.961,274.428 362.932,272.145 363.969 " stroke="none" fill="#f37442" fill-rule="evenodd"></path><path id="path6" d="M229.424 95.162 C 229.296 95.368,229.930 95.431,230.900 95.307 C 233.152 95.019,233.321 94.800,231.290 94.800 C 230.387 94.800,229.547 94.963,229.424 95.162 M248.400 107.800 C 255.107 114.510,260.685 120.000,260.795 120.000 C 260.905 120.000,255.507 114.510,248.800 107.800 C 242.093 101.090,236.515 95.600,236.405 95.600 C 236.295 95.600,241.693 101.090,248.400 107.800 M231.705 111.887 C 232.314 111.979,233.214 111.977,233.705 111.882 C 234.197 111.787,233.700 111.711,232.600 111.714 C 231.500 111.717,231.097 111.795,231.705 111.887 M224.175 115.300 L 223.000 116.600 224.300 115.425 C 225.015 114.779,225.600 114.194,225.600 114.125 C 225.600 113.816,225.270 114.088,224.175 115.300 M231.900 117.082 C 232.395 117.178,233.205 117.178,233.700 117.082 C 234.195 116.987,233.790 116.909,232.800 116.909 C 231.810 116.909,231.405 116.987,231.900 117.082 M204.267 120.267 C 204.120 120.413,204.000 121.097,204.000 121.787 C 204.000 122.476,203.775 123.292,203.500 123.601 C 203.079 124.073,203.104 124.083,203.659 123.665 C 204.134 123.308,204.962 120.000,204.577 120.000 C 204.553 120.000,204.413 120.120,204.267 120.267 M215.328 123.600 C 215.328 125.030,215.401 125.615,215.489 124.900 C 215.578 124.185,215.578 123.015,215.489 122.300 C 215.401 121.585,215.328 122.170,215.328 123.600 M226.714 127.004 C 226.941 127.447,227.548 128.166,228.063 128.602 C 228.967 129.366,228.965 129.352,228.006 128.197 C 226.413 126.279,226.279 126.155,226.714 127.004 M216.600 139.200 C 223.417 146.020,229.085 151.600,229.195 151.600 C 229.305 151.600,223.817 146.020,217.000 139.200 C 210.183 132.380,204.515 126.800,204.405 126.800 C 204.295 126.800,209.783 132.380,216.600 139.200 M231.905 135.483 C 232.402 135.579,233.122 135.575,233.505 135.475 C 233.887 135.375,233.480 135.296,232.600 135.301 C 231.720 135.305,231.407 135.387,231.905 135.483 M221.000 184.000 C 221.000 184.838,221.135 185.440,221.300 185.338 C 221.465 185.236,221.600 184.634,221.600 184.000 C 221.600 183.366,221.465 182.764,221.300 182.662 C 221.135 182.560,221.000 183.162,221.000 184.000 M213.267 184.064 C 213.174 186.104,214.946 187.623,217.331 187.547 L 219.000 187.493 217.125 187.231 C 214.792 186.905,213.688 185.942,213.489 184.058 L 213.334 182.600 213.267 184.064 M242.960 248.733 C 242.102 249.357,241.137 250.212,240.815 250.633 C 240.494 251.055,240.764 250.923,241.415 250.341 C 242.067 249.758,243.230 248.904,244.000 248.442 C 244.770 247.981,245.202 247.602,244.960 247.601 C 244.718 247.601,243.818 248.110,242.960 248.733 M254.433 247.721 C 254.525 247.788,255.140 248.158,255.800 248.545 L 257.000 249.247 256.056 248.424 C 255.536 247.971,254.921 247.600,254.689 247.600 C 254.457 247.600,254.342 247.654,254.433 247.721 M258.539 250.931 C 259.343 251.992,260.000 253.057,260.000 253.297 C 260.000 253.537,260.111 253.623,260.246 253.488 C 260.562 253.171,259.083 250.775,257.952 249.774 C 257.472 249.348,257.736 249.869,258.539 250.931 M239.386 252.827 C 239.037 253.502,238.807 254.214,238.876 254.409 C 238.944 254.604,239.302 254.051,239.670 253.182 C 240.465 251.306,240.287 251.084,239.386 252.827 M238.509 256.800 C 238.509 257.790,238.587 258.195,238.682 257.700 C 238.778 257.205,238.778 256.395,238.682 255.900 C 238.587 255.405,238.509 255.810,238.509 256.800 M238.832 259.120 C 238.796 259.698,239.907 262.000,240.221 262.000 C 240.331 262.000,240.171 261.505,239.865 260.900 C 239.560 260.295,239.209 259.530,239.086 259.200 C 238.936 258.797,238.853 258.771,238.832 259.120 M258.208 263.100 C 257.349 264.145,257.060 264.640,257.566 264.200 C 258.461 263.422,260.198 261.200,259.912 261.200 C 259.834 261.200,259.067 262.055,258.208 263.100 M240.400 262.525 C 240.400 262.594,240.985 263.179,241.700 263.825 L 243.000 265.000 241.825 263.700 C 240.730 262.488,240.400 262.216,240.400 262.525 M243.200 264.996 C 243.200 265.270,245.649 266.484,245.832 266.301 C 245.919 266.214,245.362 265.844,244.595 265.478 C 243.828 265.112,243.200 264.895,243.200 264.996 M254.600 265.622 C 253.720 266.038,253.234 266.384,253.520 266.390 C 254.102 266.401,256.400 265.284,256.400 264.990 C 256.400 264.756,256.518 264.714,254.600 265.622 M91.900 296.297 C 93.495 296.373,96.105 296.373,97.700 296.297 C 99.295 296.221,97.990 296.159,94.800 296.159 C 91.610 296.159,90.305 296.221,91.900 296.297 M221.676 331.384 C 205.500 335.071,197.087 351.192,197.721 377.289 C 197.925 385.695,198.261 388.627,199.584 393.542 L 200.031 395.200 249.315 395.193 C 303.972 395.185,301.621 395.294,306.860 392.540 C 310.396 390.683,314.800 386.455,314.800 384.920 L 314.800 383.884 301.900 384.170 L 289.000 384.455 287.000 386.408 C 276.325 396.832,258.437 386.875,261.172 372.031 C 263.482 359.492,278.130 354.487,287.000 363.205 L 289.000 365.170 301.900 365.449 L 314.800 365.727 314.800 364.822 C 314.800 359.904,309.291 350.356,304.247 346.533 C 296.860 340.935,291.952 340.561,281.600 344.806 C 271.040 349.137,268.841 348.789,257.335 340.970 C 244.290 332.104,232.465 328.925,221.676 331.384 M189.232 341.354 C 188.568 342.319,186.804 344.222,185.312 345.585 C 183.821 346.947,182.960 347.884,183.400 347.668 C 184.410 347.171,189.715 341.702,190.351 340.500 C 191.141 339.009,190.518 339.485,189.232 341.354 M191.359 350.800 C 191.359 353.990,191.421 355.295,191.497 353.700 C 191.573 352.105,191.573 349.495,191.497 347.900 C 191.421 346.305,191.359 347.610,191.359 350.800 M181.013 348.913 C 180.361 349.401,178.111 350.666,176.013 351.726 C 173.916 352.785,172.650 353.530,173.200 353.382 C 174.755 352.964,181.131 349.539,181.866 348.727 C 182.734 347.768,182.466 347.827,181.013 348.913 M169.915 354.218 C 169.795 354.338,167.740 354.863,165.348 355.384 C 162.957 355.905,161.393 356.347,161.874 356.366 C 163.825 356.442,172.313 354.164,170.567 354.033 C 170.328 354.015,170.035 354.098,169.915 354.218 M141.600 355.510 C 141.600 355.681,149.655 363.848,159.500 373.659 C 178.665 392.758,179.901 393.780,184.800 394.581 C 185.570 394.707,184.794 394.290,183.075 393.654 C 178.203 391.853,176.870 390.698,159.000 372.784 L 142.200 355.944 144.600 356.168 L 147.000 356.392 144.600 355.822 C 141.688 355.130,141.600 355.121,141.600 355.510 M148.105 356.687 C 148.714 356.779,149.614 356.777,150.105 356.682 C 150.597 356.587,150.100 356.511,149.000 356.514 C 147.900 356.517,147.497 356.595,148.105 356.687 M157.900 356.682 C 158.395 356.778,159.205 356.778,159.700 356.682 C 160.195 356.587,159.790 356.509,158.800 356.509 C 157.810 356.509,157.405 356.587,157.900 356.682 M190.435 359.268 C 189.242 365.113,188.836 377.531,189.619 384.200 C 189.826 385.960,190.112 389.054,190.255 391.076 L 190.515 394.751 188.557 394.904 L 186.600 395.056 188.752 395.128 L 190.905 395.200 190.686 391.100 C 190.566 388.845,190.252 384.930,189.988 382.400 C 189.425 376.992,189.707 367.257,190.595 361.434 C 191.247 357.160,191.146 355.786,190.435 359.268 M234.147 362.952 C 240.690 365.686,241.103 375.131,234.829 378.546 C 226.449 383.107,218.042 372.755,224.128 365.371 C 226.342 362.686,230.885 361.589,234.147 362.952 " stroke="none" fill="#f26d4d" fill-rule="evenodd"></path><path id="path7" d="M262.439 110.700 C 265.188 113.505,267.750 116.250,268.131 116.800 L 268.823 117.800 268.356 116.800 C 268.099 116.250,265.799 113.664,263.245 111.054 C 259.906 107.643,258.881 106.383,259.600 106.571 L 260.600 106.833 259.600 106.231 C 256.989 104.657,257.859 106.028,262.439 110.700 M264.362 108.628 C 265.551 109.168,266.592 109.542,266.674 109.459 C 266.848 109.285,263.014 107.589,262.526 107.623 C 262.347 107.636,263.173 108.088,264.362 108.628 M271.200 111.600 C 271.970 112.022,272.780 112.366,273.000 112.366 C 273.220 112.366,272.770 112.022,272.000 111.600 C 271.230 111.178,270.420 110.834,270.200 110.834 C 269.980 110.834,270.430 111.178,271.200 111.600 M278.352 114.609 C 279.535 115.170,280.578 115.556,280.668 115.465 C 280.759 115.374,280.061 114.988,279.117 114.606 C 276.380 113.500,276.017 113.501,278.352 114.609 M285.200 117.600 C 285.970 118.022,286.780 118.366,287.000 118.366 C 287.220 118.366,286.770 118.022,286.000 117.600 C 285.230 117.178,284.420 116.834,284.200 116.834 C 283.980 116.834,284.430 117.178,285.200 117.600 M291.200 120.200 C 291.750 120.514,292.380 120.772,292.600 120.772 C 292.820 120.772,292.550 120.514,292.000 120.200 C 291.450 119.886,290.820 119.628,290.600 119.628 C 290.380 119.628,290.650 119.886,291.200 120.200 M261.578 121.474 C 262.193 122.747,262.094 124.874,261.368 126.011 L 260.736 127.000 261.568 126.056 C 262.569 124.920,262.677 122.499,261.778 121.376 C 261.177 120.626,261.170 120.630,261.578 121.474 M297.600 123.000 C 298.150 123.314,298.780 123.572,299.000 123.572 C 299.220 123.572,298.950 123.314,298.400 123.000 C 297.850 122.686,297.220 122.428,297.000 122.428 C 296.780 122.428,297.050 122.686,297.600 123.000 M306.000 126.600 C 306.550 126.914,307.180 127.172,307.400 127.172 C 307.620 127.172,307.350 126.914,306.800 126.600 C 306.250 126.286,305.620 126.028,305.400 126.028 C 305.180 126.028,305.450 126.286,306.000 126.600 M268.800 128.678 C 268.800 128.903,268.328 129.784,267.752 130.633 C 267.175 131.483,267.007 131.926,267.378 131.618 C 268.219 130.920,269.338 128.805,269.029 128.496 C 268.903 128.370,268.800 128.452,268.800 128.678 M312.000 129.200 C 312.770 129.622,313.580 129.966,313.800 129.966 C 314.020 129.966,313.570 129.622,312.800 129.200 C 312.030 128.778,311.220 128.434,311.000 128.434 C 310.780 128.434,311.230 128.778,312.000 129.200 M265.105 133.629 C 264.723 133.852,264.204 134.432,263.953 134.917 C 263.577 135.644,263.717 135.593,264.748 134.625 C 266.327 133.144,266.429 132.858,265.105 133.629 M91.693 134.800 C 91.693 135.570,91.775 135.885,91.876 135.500 C 91.976 135.115,91.976 134.485,91.876 134.100 C 91.775 133.715,91.693 134.030,91.693 134.800 M99.348 138.800 C 99.348 141.110,99.414 142.055,99.495 140.900 C 99.576 139.745,99.576 137.855,99.495 136.700 C 99.414 135.545,99.348 136.490,99.348 138.800 M75.344 138.800 C 75.344 140.890,75.412 141.745,75.494 140.700 C 75.576 139.655,75.576 137.945,75.494 136.900 C 75.412 135.855,75.344 136.710,75.344 138.800 M123.344 138.800 C 123.344 140.890,123.412 141.745,123.494 140.700 C 123.576 139.655,123.576 137.945,123.494 136.900 C 123.412 135.855,123.344 136.710,123.344 138.800 M196.996 210.400 C 196.996 251.210,197.043 267.905,197.100 247.500 C 197.157 227.095,197.157 193.705,197.100 173.300 C 197.043 152.895,196.996 169.590,196.996 210.400 M317.046 139.206 C 317.165 140.200,317.422 141.640,317.616 142.406 C 317.902 143.534,317.926 143.394,317.744 141.677 C 317.620 140.510,317.364 139.070,317.174 138.477 C 316.917 137.673,316.884 137.859,317.046 139.206 M251.600 189.800 C 280.089 218.290,303.489 241.600,303.599 241.600 C 303.709 241.600,280.489 218.290,252.000 189.800 C 223.511 161.310,200.111 138.000,200.001 138.000 C 199.891 138.000,223.111 161.310,251.600 189.800 M259.105 139.629 C 258.723 139.852,258.204 140.432,257.953 140.917 C 257.577 141.644,257.717 141.593,258.748 140.625 C 260.327 139.144,260.429 138.858,259.105 139.629 M67.701 142.600 C 67.705 143.480,67.787 143.793,67.883 143.295 C 67.979 142.798,67.975 142.078,67.875 141.695 C 67.775 141.313,67.696 141.720,67.701 142.600 M252.919 145.690 C 252.012 146.862,251.956 147.337,252.823 146.511 C 253.336 146.022,253.656 145.523,253.535 145.401 C 253.413 145.280,253.136 145.410,252.919 145.690 M247.144 151.587 C 246.625 152.019,246.397 152.379,246.638 152.387 C 246.879 152.394,247.402 152.040,247.800 151.600 C 248.726 150.576,248.366 150.569,247.144 151.587 M229.944 152.376 C 230.464 152.829,231.079 153.200,231.311 153.200 C 231.803 153.200,231.779 153.180,230.200 152.255 L 229.000 151.553 229.944 152.376 M234.400 152.448 C 233.630 152.861,233.295 153.199,233.656 153.199 C 234.016 153.200,234.736 152.846,235.256 152.413 C 236.400 151.460,236.231 151.467,234.400 152.448 M318.893 154.000 C 318.893 154.770,318.975 155.085,319.076 154.700 C 319.176 154.315,319.176 153.685,319.076 153.300 C 318.975 152.915,318.893 153.230,318.893 154.000 M240.778 157.872 L 239.400 159.345 240.673 158.372 C 241.733 157.562,242.672 156.400,242.266 156.400 C 242.206 156.400,241.537 157.063,240.778 157.872 M51.369 165.600 C 51.369 170.110,51.427 171.955,51.498 169.700 C 51.570 167.445,51.570 163.755,51.498 161.500 C 51.427 159.245,51.369 161.090,51.369 165.600 M235.700 160.448 C 234.985 160.654,234.400 160.953,234.400 161.112 C 234.400 161.497,318.916 246.000,319.301 246.000 C 319.465 246.000,319.556 226.785,319.503 203.300 L 319.405 160.600 319.203 203.101 L 319.000 245.602 276.819 203.419 C 242.225 168.824,234.779 161.192,235.419 160.985 C 237.922 160.178,238.151 159.740,235.700 160.448 M105.656 162.000 C 105.656 162.330,105.811 162.960,106.000 163.400 C 106.217 163.904,106.344 163.978,106.344 163.600 C 106.344 163.270,106.189 162.640,106.000 162.200 C 105.783 161.696,105.656 161.622,105.656 162.000 M99.701 171.400 C 99.705 172.280,99.787 172.593,99.883 172.095 C 99.979 171.598,99.975 170.878,99.875 170.495 C 99.775 170.113,99.696 170.520,99.701 171.400 M131.737 175.400 C 131.739 177.160,131.809 177.830,131.893 176.889 C 131.978 175.949,131.977 174.509,131.891 173.689 C 131.805 172.870,131.736 173.640,131.737 175.400 M99.709 179.200 C 99.709 180.190,99.787 180.595,99.882 180.100 C 99.978 179.605,99.978 178.795,99.882 178.300 C 99.787 177.805,99.709 178.210,99.709 179.200 M131.293 180.800 C 131.293 181.570,131.375 181.885,131.476 181.500 C 131.576 181.115,131.576 180.485,131.476 180.100 C 131.375 179.715,131.293 180.030,131.293 180.800 M82.650 184.050 C 82.317 185.717,82.640 186.040,83.000 184.400 C 83.152 183.709,83.193 183.059,83.091 182.958 C 82.989 182.856,82.791 183.347,82.650 184.050 M205.301 184.200 C 205.305 185.080,205.387 185.393,205.483 184.895 C 205.579 184.398,205.575 183.678,205.475 183.295 C 205.375 182.913,205.296 183.320,205.301 184.200 M122.629 184.629 C 122.481 185.215,122.438 185.772,122.532 185.866 C 122.627 185.960,122.824 185.558,122.971 184.971 C 123.119 184.385,123.162 183.828,123.068 183.734 C 122.973 183.640,122.776 184.042,122.629 184.629 M51.750 193.400 C 51.751 195.820,51.816 196.758,51.896 195.485 C 51.976 194.212,51.975 192.232,51.894 191.085 C 51.814 189.938,51.749 190.980,51.750 193.400 M146.553 189.700 C 145.176 192.036,145.086 192.235,145.787 191.400 C 146.600 190.432,147.300 189.200,147.038 189.200 C 146.933 189.200,146.715 189.425,146.553 189.700 M126.446 197.639 C 126.201 198.343,126.013 199.118,126.028 199.360 C 126.044 199.602,126.314 199.096,126.630 198.235 C 126.945 197.374,127.133 196.600,127.048 196.515 C 126.962 196.429,126.692 196.935,126.446 197.639 M116.901 207.000 C 116.905 207.880,116.987 208.193,117.083 207.695 C 117.179 207.198,117.175 206.478,117.075 206.095 C 116.975 205.713,116.896 206.120,116.901 207.000 M76.493 207.600 C 76.493 208.370,76.575 208.685,76.676 208.300 C 76.776 207.915,76.776 207.285,76.676 206.900 C 76.575 206.515,76.493 206.830,76.493 207.600 M100.501 209.000 C 100.505 209.880,100.587 210.193,100.683 209.695 C 100.779 209.198,100.775 208.478,100.675 208.095 C 100.575 207.713,100.496 208.120,100.501 209.000 M116.546 213.800 C 116.547 216.000,116.614 216.849,116.695 215.687 C 116.776 214.524,116.776 212.724,116.693 211.687 C 116.611 210.649,116.545 211.600,116.546 213.800 M68.542 213.800 C 68.541 215.780,68.608 216.640,68.692 215.712 C 68.776 214.784,68.777 213.164,68.695 212.112 C 68.612 211.060,68.543 211.820,68.542 213.800 M92.540 213.600 C 92.540 215.470,92.609 216.235,92.693 215.300 C 92.777 214.365,92.777 212.835,92.693 211.900 C 92.609 210.965,92.540 211.730,92.540 213.600 M76.178 216.200 L 76.200 219.800 84.300 219.813 L 92.401 219.825 84.415 219.705 L 76.430 219.584 76.292 216.092 L 76.155 212.600 76.178 216.200 M100.174 216.200 L 100.200 219.800 108.300 219.813 L 116.401 219.825 108.416 219.705 L 100.431 219.584 100.289 216.092 L 100.147 212.600 100.174 216.200 M52.173 216.699 L 52.200 219.800 60.300 219.813 L 68.401 219.825 60.417 219.705 L 52.433 219.584 52.290 216.590 L 52.146 213.597 52.173 216.699 M124.161 218.800 C 124.213 220.128,127.891 220.538,128.816 219.319 C 129.282 218.705,129.280 218.673,128.801 219.100 C 127.755 220.032,124.479 219.742,124.288 218.700 C 124.144 217.917,124.128 217.930,124.161 218.800 M139.100 219.889 C 139.815 219.978,140.985 219.978,141.700 219.889 C 142.415 219.801,141.830 219.728,140.400 219.728 C 138.970 219.728,138.385 219.801,139.100 219.889 M218.000 222.153 C 218.000 222.582,219.190 224.800,219.421 224.800 C 219.531 224.800,219.323 224.215,218.959 223.500 C 218.217 222.040,218.000 221.736,218.000 222.153 M144.512 225.495 C 145.564 225.577,147.184 225.576,148.112 225.492 C 149.040 225.408,148.180 225.341,146.200 225.342 C 144.220 225.343,143.460 225.412,144.512 225.495 M155.600 226.979 C 155.600 227.089,156.140 227.459,156.800 227.800 C 157.460 228.141,158.000 228.331,158.000 228.221 C 158.000 228.111,157.460 227.741,156.800 227.400 C 156.140 227.059,155.600 226.869,155.600 226.979 M160.000 229.725 C 160.000 229.794,160.585 230.379,161.300 231.025 L 162.600 232.200 161.425 230.900 C 160.330 229.688,160.000 229.416,160.000 229.725 M226.613 230.598 C 227.279 230.891,228.539 231.238,229.413 231.369 C 230.486 231.529,230.158 231.351,228.400 230.817 C 225.400 229.907,224.900 229.845,226.613 230.598 M143.378 245.200 C 143.378 251.910,143.432 254.655,143.499 251.300 C 143.566 247.945,143.566 242.455,143.499 239.100 C 143.432 235.745,143.378 238.490,143.378 245.200 M248.291 239.089 C 249.001 239.177,250.261 239.179,251.091 239.092 C 251.921 239.005,251.340 238.933,249.800 238.931 C 248.260 238.929,247.581 239.000,248.291 239.089 M309.759 248.500 C 309.601 248.775,309.625 248.860,309.813 248.690 C 310.000 248.519,311.154 249.329,312.377 250.490 L 314.600 252.600 312.414 250.300 C 309.944 247.702,310.142 247.836,309.759 248.500 M299.478 252.605 C 299.112 253.372,298.895 254.000,298.996 254.000 C 299.270 254.000,300.484 251.551,300.301 251.368 C 300.214 251.281,299.844 251.838,299.478 252.605 M268.540 256.800 C 268.540 258.670,268.609 259.435,268.693 258.500 C 268.777 257.565,268.777 256.035,268.693 255.100 C 268.609 254.165,268.540 254.930,268.540 256.800 M143.900 265.093 C 144.835 265.177,146.365 265.177,147.300 265.093 C 148.235 265.009,147.470 264.940,145.600 264.940 C 143.730 264.940,142.965 265.009,143.900 265.093 M285.991 271.500 L 282.600 275.000 286.100 271.609 C 289.351 268.459,289.782 268.000,289.491 268.000 C 289.431 268.000,287.856 269.575,285.991 271.500 M248.311 274.693 C 249.251 274.778,250.691 274.777,251.511 274.691 C 252.330 274.605,251.560 274.536,249.800 274.537 C 248.040 274.539,247.370 274.609,248.311 274.693 M291.375 277.300 L 290.200 278.600 291.500 277.425 C 292.215 276.779,292.800 276.194,292.800 276.125 C 292.800 275.816,292.470 276.088,291.375 277.300 M307.178 283.500 L 305.800 285.000 307.300 283.622 C 308.696 282.338,308.984 282.000,308.678 282.000 C 308.612 282.000,307.937 282.675,307.178 283.500 M314.175 287.300 L 313.000 288.600 314.300 287.425 C 315.512 286.330,315.784 286.000,315.475 286.000 C 315.406 286.000,314.821 286.585,314.175 287.300 M258.200 288.614 C 257.200 289.096,257.166 289.151,258.000 288.948 C 259.133 288.671,260.407 288.021,259.800 288.030 C 259.580 288.033,258.860 288.296,258.200 288.614 M301.178 289.500 L 299.800 291.000 301.300 289.622 C 302.696 288.338,302.984 288.000,302.678 288.000 C 302.612 288.000,301.937 288.675,301.178 289.500 M127.978 291.900 L 126.600 293.400 128.100 292.022 C 129.496 290.738,129.784 290.400,129.478 290.400 C 129.412 290.400,128.737 291.075,127.978 291.900 M308.786 293.100 L 306.600 295.400 308.900 293.214 C 311.037 291.182,311.383 290.800,311.086 290.800 C 311.024 290.800,309.989 291.835,308.786 293.100 M231.100 293.093 C 232.035 293.177,233.565 293.177,234.500 293.093 C 235.435 293.009,234.670 292.940,232.800 292.940 C 230.930 292.940,230.165 293.009,231.100 293.093 M196.879 301.076 C 196.836 305.518,196.935 309.237,197.100 309.339 C 197.265 309.442,197.353 307.067,197.296 304.063 C 197.105 293.982,196.960 292.940,196.879 301.076 M209.400 297.600 C 209.840 297.789,210.470 297.944,210.800 297.944 C 211.178 297.944,211.104 297.817,210.600 297.600 C 210.160 297.411,209.530 297.256,209.200 297.256 C 208.822 297.256,208.896 297.383,209.400 297.600 M223.505 300.283 C 224.002 300.379,224.722 300.375,225.105 300.275 C 225.487 300.175,225.080 300.096,224.200 300.101 C 223.320 300.105,223.007 300.187,223.505 300.283 M240.900 300.276 C 241.285 300.376,241.915 300.376,242.300 300.276 C 242.685 300.175,242.370 300.093,241.600 300.093 C 240.830 300.093,240.515 300.175,240.900 300.276 M229.700 300.697 C 231.405 300.772,234.195 300.772,235.900 300.697 C 237.605 300.622,236.210 300.561,232.800 300.561 C 229.390 300.561,227.995 300.622,229.700 300.697 M281.900 303.029 C 280.405 303.840,280.496 304.178,282.000 303.400 C 282.660 303.059,283.200 302.694,283.200 302.590 C 283.200 302.332,283.157 302.347,281.900 303.029 M101.105 303.883 C 101.602 303.979,102.322 303.975,102.705 303.875 C 103.087 303.775,102.680 303.696,101.800 303.701 C 100.920 303.705,100.607 303.787,101.105 303.883 M90.000 304.236 C 90.000 304.439,95.895 310.454,103.100 317.602 L 116.200 330.600 103.200 317.415 C 96.050 310.164,90.155 304.149,90.100 304.049 C 90.045 303.949,90.000 304.033,90.000 304.236 M155.700 307.091 C 156.525 307.178,157.875 307.178,158.700 307.091 C 159.525 307.005,158.850 306.934,157.200 306.934 C 155.550 306.934,154.875 307.005,155.700 307.091 M186.886 310.201 C 187.923 311.279,188.833 312.080,188.907 311.981 C 188.981 311.881,188.133 310.999,187.021 310.020 L 185.000 308.240 186.886 310.201 M123.986 311.900 L 121.800 314.200 124.100 312.014 C 126.237 309.982,126.583 309.600,126.286 309.600 C 126.224 309.600,125.189 310.635,123.986 311.900 M259.400 312.000 C 258.896 312.217,258.822 312.344,259.200 312.344 C 259.530 312.344,260.160 312.189,260.600 312.000 C 261.104 311.783,261.178 311.656,260.800 311.656 C 260.470 311.656,259.840 311.811,259.400 312.000 M218.305 314.683 C 218.802 314.779,219.522 314.775,219.905 314.675 C 220.287 314.575,219.880 314.496,219.000 314.501 C 218.120 314.505,217.807 314.587,218.305 314.683 M246.100 314.676 C 246.485 314.776,247.115 314.776,247.500 314.676 C 247.885 314.575,247.570 314.493,246.800 314.493 C 246.030 314.493,245.715 314.575,246.100 314.676 M129.785 316.900 L 127.800 319.000 129.900 317.015 C 131.055 315.923,132.000 314.978,132.000 314.915 C 132.000 314.617,131.629 314.949,129.785 316.900 M221.505 315.083 C 222.002 315.179,222.722 315.175,223.105 315.075 C 223.487 314.975,223.080 314.896,222.200 314.901 C 221.320 314.905,221.007 314.987,221.505 315.083 M242.705 315.083 C 243.202 315.179,243.922 315.175,244.305 315.075 C 244.687 314.975,244.280 314.896,243.400 314.901 C 242.520 314.905,242.207 314.987,242.705 315.083 M226.707 315.490 C 227.426 315.579,228.506 315.577,229.107 315.486 C 229.708 315.395,229.120 315.322,227.800 315.324 C 226.480 315.326,225.988 315.401,226.707 315.490 M236.700 315.489 C 237.415 315.578,238.585 315.578,239.300 315.489 C 240.015 315.401,239.430 315.328,238.000 315.328 C 236.570 315.328,235.985 315.401,236.700 315.489 M196.894 329.149 C 196.796 341.414,196.917 342.183,198.449 339.033 C 198.761 338.391,198.667 338.429,198.040 339.200 L 197.226 340.200 197.106 328.800 L 196.987 317.400 196.894 329.149 M198.200 318.000 C 198.640 318.189,199.270 318.344,199.600 318.344 C 199.978 318.344,199.904 318.217,199.400 318.000 C 198.960 317.811,198.330 317.656,198.000 317.656 C 197.622 317.656,197.696 317.783,198.200 318.000 M165.300 320.694 C 166.345 320.776,168.055 320.776,169.100 320.694 C 170.145 320.612,169.290 320.544,167.200 320.544 C 165.110 320.544,164.255 320.612,165.300 320.694 M125.718 322.204 C 125.182 323.326,125.148 323.708,125.548 324.104 C 125.946 324.499,125.996 324.465,125.795 323.936 C 125.656 323.571,125.830 322.716,126.181 322.036 C 126.533 321.356,126.723 320.800,126.604 320.800 C 126.485 320.800,126.086 321.432,125.718 322.204 M253.600 321.200 C 252.808 321.454,252.767 321.520,253.400 321.520 C 253.840 321.520,254.650 321.376,255.200 321.200 C 255.992 320.946,256.033 320.880,255.400 320.880 C 254.960 320.880,254.150 321.024,253.600 321.200 M179.200 323.400 C 179.750 323.714,180.380 323.972,180.600 323.972 C 180.820 323.972,180.550 323.714,180.000 323.400 C 179.450 323.086,178.820 322.828,178.600 322.828 C 178.380 322.828,178.650 323.086,179.200 323.400 M186.258 324.000 C 186.575 325.725,186.802 326.051,186.794 324.767 C 186.791 324.235,186.611 323.530,186.394 323.200 C 186.118 322.778,186.077 323.015,186.258 324.000 M221.800 323.200 L 221.000 323.544 221.800 323.566 C 222.240 323.578,222.870 323.413,223.200 323.200 C 223.995 322.686,222.996 322.686,221.800 323.200 M237.800 323.169 C 237.032 323.469,237.037 323.493,237.930 323.777 C 238.442 323.940,238.967 323.967,239.097 323.837 C 239.227 323.706,239.078 323.576,238.767 323.547 C 238.455 323.518,238.830 323.362,239.600 323.200 C 240.967 322.912,240.972 322.905,239.800 322.881 C 239.140 322.867,238.240 322.997,237.800 323.169 M166.705 328.283 C 167.202 328.379,167.922 328.375,168.305 328.275 C 168.687 328.175,168.280 328.096,167.400 328.101 C 166.520 328.105,166.207 328.187,166.705 328.283 M202.981 332.900 L 201.400 334.600 203.100 333.019 C 204.681 331.548,204.984 331.200,204.681 331.200 C 204.616 331.200,203.851 331.965,202.981 332.900 M277.600 337.800 C 277.050 338.114,276.780 338.372,277.000 338.372 C 277.220 338.372,277.850 338.114,278.400 337.800 C 278.950 337.486,279.220 337.228,279.000 337.228 C 278.780 337.228,278.150 337.486,277.600 337.800 M129.200 340.125 C 129.200 340.194,129.785 340.779,130.500 341.425 L 131.800 342.600 130.625 341.300 C 129.530 340.088,129.200 339.816,129.200 340.125 M152.700 349.089 C 153.415 349.178,154.585 349.178,155.300 349.089 C 156.015 349.001,155.430 348.928,154.000 348.928 C 152.570 348.928,151.985 349.001,152.700 349.089 " stroke="none" fill="#84a492" fill-rule="evenodd"></path><path id="path8" d="M91.342 138.600 C 91.341 140.580,91.408 141.440,91.492 140.512 C 91.576 139.584,91.577 137.964,91.495 136.912 C 91.412 135.860,91.343 136.620,91.342 138.600 M67.337 138.600 C 67.339 140.360,67.409 141.030,67.493 140.089 C 67.578 139.149,67.577 137.709,67.491 136.889 C 67.405 136.070,67.336 136.840,67.337 138.600 M188.996 223.800 C 188.996 272.200,189.043 291.941,189.100 267.668 C 189.157 243.395,189.157 203.795,189.100 179.668 C 189.043 155.541,188.996 175.400,188.996 223.800 M57.978 139.900 L 56.600 141.400 58.100 140.022 C 59.496 138.738,59.784 138.400,59.478 138.400 C 59.412 138.400,58.737 139.075,57.978 139.900 M125.029 149.200 C 125.176 149.750,125.464 150.470,125.667 150.800 C 125.925 151.217,125.957 151.095,125.771 150.400 C 125.624 149.850,125.336 149.130,125.133 148.800 C 124.875 148.383,124.843 148.505,125.029 149.200 M51.309 156.000 C 51.309 156.990,51.387 157.395,51.482 156.900 C 51.578 156.405,51.578 155.595,51.482 155.100 C 51.387 154.605,51.309 155.010,51.309 156.000 M131.701 171.000 C 131.705 171.880,131.787 172.193,131.883 171.695 C 131.979 171.198,131.975 170.478,131.875 170.095 C 131.775 169.713,131.696 170.120,131.701 171.000 M83.748 175.200 C 83.748 177.510,83.814 178.455,83.895 177.300 C 83.976 176.145,83.976 174.255,83.895 173.100 C 83.814 171.945,83.748 172.890,83.748 175.200 M107.750 175.400 C 107.751 177.820,107.816 178.758,107.896 177.485 C 107.976 176.212,107.975 174.232,107.894 173.085 C 107.814 171.938,107.749 172.980,107.750 175.400 M123.744 175.200 C 123.744 177.290,123.812 178.145,123.894 177.100 C 123.976 176.055,123.976 174.345,123.894 173.300 C 123.812 172.255,123.744 173.110,123.744 175.200 M75.728 175.200 C 75.728 176.630,75.801 177.215,75.889 176.500 C 75.978 175.785,75.978 174.615,75.889 173.900 C 75.801 173.185,75.728 173.770,75.728 175.200 M99.728 175.200 C 99.728 176.630,99.801 177.215,99.889 176.500 C 99.978 175.785,99.978 174.615,99.889 173.900 C 99.801 173.185,99.728 173.770,99.728 175.200 M51.768 181.400 C 51.768 185.800,51.826 187.655,51.898 185.521 C 51.970 183.388,51.970 179.788,51.899 177.521 C 51.827 175.255,51.768 177.000,51.768 181.400 M226.000 176.200 C 226.746 176.970,227.447 177.600,227.557 177.600 C 227.667 177.600,227.146 176.970,226.400 176.200 C 225.654 175.430,224.953 174.800,224.843 174.800 C 224.733 174.800,225.254 175.430,226.000 176.200 M131.701 179.800 C 131.705 180.680,131.787 180.993,131.883 180.495 C 131.979 179.998,131.975 179.278,131.875 178.895 C 131.775 178.513,131.696 178.920,131.701 179.800 M229.309 184.000 C 229.309 184.990,229.387 185.395,229.482 184.900 C 229.578 184.405,229.578 183.595,229.482 183.100 C 229.387 182.605,229.309 183.010,229.309 184.000 M225.781 192.100 L 224.200 193.800 225.900 192.219 C 227.481 190.748,227.784 190.400,227.481 190.400 C 227.416 190.400,226.651 191.165,225.781 192.100 M52.148 209.600 C 52.148 211.910,52.214 212.855,52.295 211.700 C 52.376 210.545,52.376 208.655,52.295 207.500 C 52.214 206.345,52.148 207.290,52.148 209.600 M124.893 206.800 C 124.893 207.570,124.975 207.885,125.076 207.500 C 125.176 207.115,125.176 206.485,125.076 206.100 C 124.975 205.715,124.893 206.030,124.893 206.800 M220.975 207.700 L 219.800 209.000 221.100 207.825 C 221.815 207.179,222.400 206.594,222.400 206.525 C 222.400 206.216,222.070 206.488,220.975 207.700 M243.200 207.800 C 243.946 208.570,244.647 209.200,244.757 209.200 C 244.867 209.200,244.346 208.570,243.600 207.800 C 242.854 207.030,242.153 206.400,242.043 206.400 C 241.933 206.400,242.454 207.030,243.200 207.800 M68.509 208.800 C 68.509 209.790,68.587 210.195,68.682 209.700 C 68.778 209.205,68.778 208.395,68.682 207.900 C 68.587 207.405,68.509 207.810,68.509 208.800 M76.524 211.000 C 76.526 212.320,76.601 212.812,76.690 212.093 C 76.779 211.374,76.777 210.294,76.686 209.693 C 76.595 209.092,76.522 209.680,76.524 211.000 M100.501 211.800 C 100.505 212.680,100.587 212.993,100.683 212.495 C 100.779 211.998,100.775 211.278,100.675 210.895 C 100.575 210.513,100.496 210.920,100.501 211.800 M124.493 211.600 C 124.493 212.370,124.575 212.685,124.676 212.300 C 124.776 211.915,124.776 211.285,124.676 210.900 C 124.575 210.515,124.493 210.830,124.493 211.600 M247.314 217.400 C 247.317 218.500,247.395 218.903,247.487 218.295 C 247.579 217.686,247.577 216.786,247.482 216.295 C 247.387 215.803,247.311 216.300,247.314 217.400 M68.101 218.200 C 68.105 219.080,68.187 219.393,68.283 218.895 C 68.379 218.398,68.375 217.678,68.275 217.295 C 68.175 216.913,68.096 217.320,68.101 218.200 M128.580 218.776 C 128.371 218.983,127.300 219.220,126.200 219.304 L 124.200 219.456 126.251 219.528 C 127.657 219.577,128.459 219.411,128.800 219.000 C 129.347 218.341,129.186 218.177,128.580 218.776 M142.934 222.400 C 142.934 224.050,143.005 224.725,143.091 223.900 C 143.178 223.075,143.178 221.725,143.091 220.900 C 143.005 220.075,142.934 220.750,142.934 222.400 M242.981 227.300 L 241.400 229.000 243.100 227.419 C 244.681 225.948,244.984 225.600,244.681 225.600 C 244.616 225.600,243.851 226.365,242.981 227.300 M220.400 226.525 C 220.400 226.594,220.985 227.179,221.700 227.825 L 223.000 229.000 221.825 227.700 C 220.730 226.488,220.400 226.216,220.400 226.525 M145.100 233.493 C 146.035 233.577,147.565 233.577,148.500 233.493 C 149.435 233.409,148.670 233.340,146.800 233.340 C 144.930 233.340,144.165 233.409,145.100 233.493 M166.944 245.200 C 166.944 247.290,167.012 248.145,167.094 247.100 C 167.176 246.055,167.176 244.345,167.094 243.300 C 167.012 242.255,166.944 243.110,166.944 245.200 M237.687 242.700 C 236.730 243.635,236.714 243.681,237.581 243.006 C 239.288 241.676,239.369 241.600,239.086 241.600 C 238.936 241.600,238.306 242.095,237.687 242.700 M158.920 245.200 C 158.920 246.410,158.995 246.905,159.087 246.300 C 159.178 245.695,159.178 244.705,159.087 244.100 C 158.995 243.495,158.920 243.990,158.920 245.200 M230.534 256.800 C 230.534 258.450,230.605 259.125,230.691 258.300 C 230.778 257.475,230.778 256.125,230.691 255.300 C 230.605 254.475,230.534 255.150,230.534 256.800 M268.909 256.800 C 268.909 257.790,268.987 258.195,269.082 257.700 C 269.178 257.205,269.178 256.395,269.082 255.900 C 268.987 255.405,268.909 255.810,268.909 256.800 M145.111 257.093 C 146.051 257.178,147.491 257.177,148.311 257.091 C 149.130 257.005,148.360 256.936,146.600 256.937 C 144.840 256.939,144.170 257.009,145.111 257.093 M318.520 266.000 C 318.520 267.210,318.595 267.705,318.687 267.100 C 318.778 266.495,318.778 265.505,318.687 264.900 C 318.595 264.295,318.520 264.790,318.520 266.000 M288.975 268.100 L 287.800 269.400 289.100 268.225 C 289.815 267.579,290.400 266.994,290.400 266.925 C 290.400 266.616,290.070 266.888,288.975 268.100 M237.167 270.545 C 237.700 271.201,239.200 272.193,239.200 271.889 C 239.200 271.813,238.615 271.322,237.900 270.799 C 237.096 270.210,236.816 270.113,237.167 270.545 M248.900 275.076 C 249.285 275.176,249.915 275.176,250.300 275.076 C 250.685 274.975,250.370 274.893,249.600 274.893 C 248.830 274.893,248.515 274.975,248.900 275.076 M288.778 279.900 L 287.400 281.400 288.900 280.022 C 290.296 278.738,290.584 278.400,290.278 278.400 C 290.212 278.400,289.537 279.075,288.778 279.900 M317.949 283.077 C 317.567 283.548,317.553 283.661,317.904 283.450 C 318.309 283.208,318.406 289.871,318.395 317.031 C 318.388 335.668,318.476 351.010,318.591 351.124 C 318.706 351.239,318.800 335.823,318.800 316.867 C 318.800 297.910,318.732 282.400,318.649 282.400 C 318.566 282.400,318.251 282.705,317.949 283.077 M263.600 286.200 C 263.050 286.514,262.780 286.772,263.000 286.772 C 263.220 286.772,263.850 286.514,264.400 286.200 C 264.950 285.886,265.220 285.628,265.000 285.628 C 264.780 285.628,264.150 285.886,263.600 286.200 M313.775 288.100 L 312.600 289.400 313.900 288.225 C 314.615 287.579,315.200 286.994,315.200 286.925 C 315.200 286.616,314.870 286.888,313.775 288.100 M209.600 289.400 C 211.426 290.103,212.145 290.093,210.600 289.386 C 209.940 289.083,209.130 288.842,208.800 288.848 C 208.470 288.855,208.830 289.103,209.600 289.400 M255.400 289.200 C 254.896 289.417,254.822 289.544,255.200 289.544 C 255.530 289.544,256.160 289.389,256.600 289.200 C 257.104 288.983,257.178 288.856,256.800 288.856 C 256.470 288.856,255.840 289.011,255.400 289.200 M222.900 292.276 C 223.285 292.376,223.915 292.376,224.300 292.276 C 224.685 292.175,224.370 292.093,223.600 292.093 C 222.830 292.093,222.515 292.175,222.900 292.276 M241.300 292.276 C 241.685 292.376,242.315 292.376,242.700 292.276 C 243.085 292.175,242.770 292.093,242.000 292.093 C 241.230 292.093,240.915 292.175,241.300 292.276 M226.700 292.682 C 227.195 292.778,228.005 292.778,228.500 292.682 C 228.995 292.587,228.590 292.509,227.600 292.509 C 226.610 292.509,226.205 292.587,226.700 292.682 M237.505 292.683 C 238.002 292.779,238.722 292.775,239.105 292.675 C 239.487 292.575,239.080 292.496,238.200 292.501 C 237.320 292.505,237.007 292.587,237.505 292.683 M115.600 300.200 C 115.050 300.514,114.780 300.772,115.000 300.772 C 115.220 300.772,115.850 300.514,116.400 300.200 C 116.950 299.886,117.220 299.628,117.000 299.628 C 116.780 299.628,116.150 299.886,115.600 300.200 M220.900 300.276 C 221.285 300.376,221.915 300.376,222.300 300.276 C 222.685 300.175,222.370 300.093,221.600 300.093 C 220.830 300.093,220.515 300.175,220.900 300.276 M243.300 300.276 C 243.685 300.376,244.315 300.376,244.700 300.276 C 245.085 300.175,244.770 300.093,244.000 300.093 C 243.230 300.093,242.915 300.175,243.300 300.276 M224.705 300.683 C 225.202 300.779,225.922 300.775,226.305 300.675 C 226.687 300.575,226.280 300.496,225.400 300.501 C 224.520 300.505,224.207 300.587,224.705 300.683 M239.505 300.683 C 240.002 300.779,240.722 300.775,241.105 300.675 C 241.487 300.575,241.080 300.496,240.200 300.501 C 239.320 300.505,239.007 300.587,239.505 300.683 M90.400 304.322 C 90.400 304.498,91.075 305.263,91.900 306.022 L 93.400 307.400 92.034 305.913 L 90.668 304.426 95.634 304.299 L 100.600 304.173 95.500 304.086 C 92.695 304.039,90.400 304.145,90.400 304.322 M197.200 309.031 C 197.200 309.301,199.278 310.056,199.476 309.857 C 199.567 309.767,199.092 309.501,198.420 309.267 C 197.749 309.033,197.200 308.927,197.200 309.031 M97.400 311.600 C 98.259 312.480,99.052 313.200,99.162 313.200 C 99.272 313.200,98.659 312.480,97.800 311.600 C 96.941 310.720,96.148 310.000,96.038 310.000 C 95.928 310.000,96.541 310.720,97.400 311.600 M283.100 311.429 C 281.605 312.240,281.696 312.578,283.200 311.800 C 283.860 311.459,284.400 311.094,284.400 310.990 C 284.400 310.732,284.357 310.747,283.100 311.429 M224.500 315.087 C 225.105 315.178,226.095 315.178,226.700 315.087 C 227.305 314.995,226.810 314.920,225.600 314.920 C 224.390 314.920,223.895 314.995,224.500 315.087 M239.305 315.087 C 239.914 315.179,240.814 315.177,241.305 315.082 C 241.797 314.987,241.300 314.911,240.200 314.914 C 239.100 314.917,238.697 314.995,239.305 315.087 M231.300 315.491 C 232.125 315.578,233.475 315.578,234.300 315.491 C 235.125 315.405,234.450 315.334,232.800 315.334 C 231.150 315.334,230.475 315.405,231.300 315.491 M104.400 318.600 C 105.817 320.030,107.067 321.200,107.177 321.200 C 107.287 321.200,106.217 320.030,104.800 318.600 C 103.383 317.170,102.133 316.000,102.023 316.000 C 101.913 316.000,102.983 317.170,104.400 318.600 M128.575 318.500 L 127.400 319.800 128.700 318.625 C 129.912 317.530,130.184 317.200,129.875 317.200 C 129.806 317.200,129.221 317.785,128.575 318.500 M109.000 323.200 C 109.859 324.080,110.652 324.800,110.762 324.800 C 110.872 324.800,110.259 324.080,109.400 323.200 C 108.541 322.320,107.748 321.600,107.638 321.600 C 107.528 321.600,108.141 322.320,109.000 323.200 M220.600 323.200 C 220.096 323.417,220.022 323.544,220.400 323.544 C 220.730 323.544,221.360 323.389,221.800 323.200 C 222.304 322.983,222.378 322.856,222.000 322.856 C 221.670 322.856,221.040 323.011,220.600 323.200 M241.705 323.087 C 242.314 323.179,243.214 323.177,243.705 323.082 C 244.197 322.987,243.700 322.911,242.600 322.914 C 241.500 322.917,241.097 322.995,241.705 323.087 M152.700 323.829 C 151.205 324.640,151.296 324.978,152.800 324.200 C 153.460 323.859,154.000 323.494,154.000 323.390 C 154.000 323.132,153.957 323.147,152.700 323.829 M238.800 323.600 C 239.590 324.111,240.916 324.111,240.600 323.600 C 240.464 323.380,239.868 323.203,239.276 323.206 C 238.434 323.211,238.331 323.297,238.800 323.600 M217.400 324.000 C 216.896 324.217,216.822 324.344,217.200 324.344 C 217.530 324.344,218.160 324.189,218.600 324.000 C 219.104 323.783,219.178 323.656,218.800 323.656 C 218.470 323.656,217.840 323.811,217.400 324.000 M249.200 327.000 C 249.750 327.314,250.380 327.572,250.600 327.572 C 250.820 327.572,250.550 327.314,250.000 327.000 C 249.450 326.686,248.820 326.428,248.600 326.428 C 248.380 326.428,248.650 326.686,249.200 327.000 M114.778 328.901 C 116.464 330.734,116.413 330.734,116.340 328.900 C 116.289 327.621,116.255 327.568,116.109 328.545 L 115.938 329.690 114.669 328.546 C 113.460 327.456,113.465 327.473,114.778 328.901 M170.000 328.800 C 171.368 329.238,172.419 329.238,171.400 328.800 C 170.960 328.611,170.240 328.462,169.800 328.468 C 169.157 328.477,169.196 328.543,170.000 328.800 M291.905 333.883 C 292.402 333.979,293.122 333.975,293.505 333.875 C 293.887 333.775,293.480 333.696,292.600 333.701 C 291.720 333.705,291.407 333.787,291.905 333.883 M172.800 344.400 C 172.030 344.822,171.544 345.174,171.720 345.183 C 172.144 345.205,174.400 344.032,174.400 343.790 C 174.400 343.528,174.377 343.537,172.800 344.400 M149.300 348.676 C 149.685 348.776,150.315 348.776,150.700 348.676 C 151.085 348.575,150.770 348.493,150.000 348.493 C 149.230 348.493,148.915 348.575,149.300 348.676 M156.900 348.676 C 157.285 348.776,157.915 348.776,158.300 348.676 C 158.685 348.575,158.370 348.493,157.600 348.493 C 156.830 348.493,156.515 348.575,156.900 348.676 " stroke="none" fill="#61a194" fill-rule="evenodd"></path></g></svg>