<svg id="svg" version="1.1" xmlns="http://www.w3.org/2000/svg" xmlns:xlink="http://www.w3.org/1999/xlink" width="400" height="125.28301886792453" viewBox="0, 0, 400,125.28301886792453"><g id="svgg"><path id="path2" d="M17.917 0.418 C 15.132 1.108,13.081 1.832,12.000 2.507 C 11.862 2.593,11.458 2.821,11.101 3.014 C 8.659 4.334,3.833 8.725,3.833 9.628 C 3.833 9.718,3.713 9.892,3.566 10.014 C 2.107 11.225,0.744 16.268,0.167 22.583 C -0.049 24.962,-0.049 39.371,0.167 41.750 C 0.776 48.423,1.792 52.035,3.825 54.750 C 4.099 55.117,4.457 55.603,4.620 55.830 C 5.628 57.235,10.011 61.000,10.638 61.000 C 10.730 61.000,10.831 61.064,10.861 61.142 C 11.007 61.514,14.425 63.021,16.250 63.517 C 18.272 64.066,18.692 64.135,21.167 64.323 C 25.199 64.629,29.270 64.145,32.500 62.975 C 33.745 62.524,35.362 61.806,35.667 61.568 C 35.804 61.461,36.171 61.244,36.483 61.086 C 38.318 60.156,41.466 57.310,43.029 55.167 C 44.137 53.648,45.833 50.435,45.833 49.855 C 45.833 49.781,46.011 49.127,46.229 48.402 C 47.075 45.578,47.226 43.924,47.294 36.714 L 47.357 30.012 46.690 29.298 L 46.024 28.583 35.279 28.583 L 24.535 28.583 23.934 29.220 L 23.333 29.857 23.333 33.814 L 23.333 37.771 23.792 38.198 C 24.621 38.972,24.793 39.000,28.665 39.000 C 34.232 39.000,34.750 39.254,34.750 41.987 C 34.750 45.686,32.636 49.887,30.082 51.262 C 29.762 51.435,29.500 51.634,29.500 51.705 C 29.500 51.775,29.399 51.833,29.276 51.833 C 29.152 51.833,28.796 51.963,28.484 52.121 C 24.759 54.006,19.005 53.264,16.219 50.538 C 13.039 47.426,12.578 45.103,12.593 32.250 C 12.608 18.737,13.307 15.895,17.333 12.973 C 21.884 9.672,30.314 11.297,32.778 15.952 C 33.354 17.040,33.493 17.320,33.833 18.083 C 34.875 20.425,34.611 20.333,40.267 20.333 C 46.127 20.333,46.667 20.124,46.667 17.854 C 46.667 16.641,46.245 15.355,44.856 12.333 C 44.456 11.463,43.403 9.675,43.071 9.304 C 42.881 9.091,42.457 8.542,42.129 8.083 C 41.479 7.175,39.806 5.521,38.750 4.743 C 38.383 4.473,38.046 4.214,38.000 4.168 C 36.910 3.066,32.879 1.329,29.417 0.470 C 26.995 -0.131,20.255 -0.162,17.917 0.418 M78.000 0.112 C 73.789 0.909,69.351 2.752,67.515 4.464 C 67.347 4.621,66.956 4.938,66.647 5.167 C 65.960 5.677,63.000 8.642,63.000 8.820 C 63.000 8.891,62.844 9.129,62.653 9.349 C 59.574 12.900,58.603 18.271,58.591 31.833 C 58.581 43.044,59.001 47.530,60.354 50.649 C 60.872 51.844,62.231 54.538,62.417 54.737 C 62.508 54.836,62.806 55.217,63.077 55.583 C 68.237 62.548,79.096 66.133,88.000 63.811 C 88.688 63.632,89.438 63.444,89.667 63.393 C 90.931 63.110,94.503 61.410,95.531 60.602 C 95.778 60.408,96.340 59.988,96.781 59.669 C 98.253 58.602,101.667 55.014,101.667 54.534 C 101.667 54.446,101.763 54.294,101.880 54.197 C 102.244 53.895,104.000 50.234,104.000 49.778 C 104.000 49.654,104.145 49.131,104.322 48.616 C 106.104 43.436,106.150 22.567,104.394 16.000 C 103.801 13.781,102.436 10.597,101.880 10.136 C 101.763 10.039,101.667 9.884,101.667 9.792 C 101.667 9.699,101.141 8.999,100.498 8.236 C 99.512 7.066,98.744 6.334,96.333 4.273 C 96.196 4.155,95.784 3.877,95.419 3.655 C 92.608 1.943,91.317 1.400,87.833 0.470 C 86.457 0.102,79.407 -0.155,78.000 0.112 M117.977 0.526 C 117.612 0.738,117.228 1.163,117.013 1.593 L 116.656 2.308 116.706 23.446 C 116.752 43.220,116.775 44.680,117.063 46.083 C 117.640 48.899,118.180 50.452,119.379 52.750 C 120.334 54.580,121.414 56.007,123.054 57.605 C 124.412 58.929,126.175 60.333,126.479 60.333 C 126.567 60.333,126.664 60.402,126.694 60.486 C 126.791 60.750,130.358 62.442,131.750 62.884 C 137.409 64.679,143.208 64.648,148.750 62.793 C 149.575 62.517,150.438 62.197,150.667 62.083 C 150.896 61.969,151.346 61.754,151.667 61.606 C 152.350 61.289,152.486 61.208,154.272 60.050 C 155.867 59.017,157.815 57.242,158.848 55.884 C 159.252 55.352,159.621 54.879,159.668 54.833 C 160.157 54.356,162.333 50.066,162.333 49.580 C 162.333 49.451,162.478 48.978,162.655 48.529 C 162.832 48.080,163.021 47.383,163.075 46.981 C 163.129 46.579,163.265 45.725,163.378 45.083 C 163.780 42.801,163.664 2.207,163.254 1.445 C 163.073 1.109,162.872 0.833,162.807 0.833 C 162.743 0.833,162.559 0.702,162.399 0.542 C 161.883 0.026,152.759 0.105,152.091 0.631 C 151.002 1.487,151.093 -0.338,150.985 22.833 C 150.920 36.621,150.826 44.176,150.711 44.667 C 150.469 45.707,149.986 46.965,149.542 47.718 C 149.335 48.067,149.167 48.386,149.167 48.428 C 149.167 48.726,147.341 50.517,146.354 51.188 C 143.965 52.812,137.497 53.430,135.931 52.185 C 135.831 52.106,135.563 51.986,135.333 51.918 C 133.535 51.389,131.317 49.048,130.313 46.620 C 129.349 44.288,129.340 44.060,129.336 22.033 C 129.333 -0.216,129.418 1.410,128.210 0.588 L 127.589 0.167 123.086 0.170 C 118.811 0.174,118.553 0.192,117.977 0.526 M176.018 0.752 C 175.798 0.873,175.445 1.184,175.232 1.444 L 174.845 1.917 174.839 32.151 L 174.833 62.385 175.247 62.928 C 176.010 63.928,176.566 64.023,181.350 63.967 L 185.609 63.917 186.296 63.462 C 187.346 62.766,187.331 62.934,187.332 51.189 C 187.334 37.723,186.941 38.784,191.959 38.698 C 196.455 38.621,195.339 37.341,201.156 49.250 C 201.962 50.900,203.486 54.012,204.542 56.167 C 205.598 58.321,206.782 60.746,207.172 61.555 C 207.732 62.717,208.023 63.121,208.553 63.472 L 209.225 63.917 214.071 63.969 C 219.474 64.027,219.851 63.975,220.748 63.052 C 221.349 62.433,221.616 60.692,221.180 60.242 C 221.096 60.155,220.179 58.433,219.143 56.417 C 218.108 54.400,216.883 52.023,216.422 51.135 C 215.559 49.472,213.909 46.285,212.470 43.500 C 212.020 42.629,211.205 41.058,210.659 40.009 C 209.611 37.994,209.518 37.603,209.911 36.845 C 210.164 36.354,211.077 35.500,211.347 35.500 C 211.963 35.500,216.667 31.564,216.667 31.048 C 216.667 30.945,216.730 30.836,216.807 30.806 C 217.294 30.612,218.640 28.144,219.381 26.083 C 220.614 22.658,220.584 16.635,219.319 13.333 C 218.692 11.700,218.128 10.422,217.920 10.167 C 217.808 10.029,217.541 9.598,217.327 9.208 C 217.114 8.819,216.877 8.500,216.803 8.500 C 216.728 8.500,216.667 8.403,216.667 8.284 C 216.667 7.817,213.368 4.659,211.964 3.782 C 210.285 2.734,207.668 1.500,207.125 1.500 C 206.988 1.500,206.549 1.385,206.150 1.244 C 204.051 0.503,177.266 0.066,176.018 0.752 M233.660 0.874 C 232.393 1.726,232.491 -1.034,232.540 32.376 C 232.583 61.920,232.587 62.256,232.917 62.791 C 233.100 63.088,233.319 63.332,233.404 63.332 C 233.488 63.333,233.702 63.465,233.879 63.625 C 234.452 64.144,242.734 64.156,243.769 63.639 C 245.253 62.898,245.167 63.774,245.167 49.464 C 245.167 34.483,245.113 34.825,247.481 34.839 C 248.780 34.846,248.989 35.081,250.716 38.478 C 251.522 40.064,252.246 41.486,252.326 41.639 C 252.405 41.792,252.939 42.854,253.511 44.000 C 256.364 49.708,256.589 50.112,257.152 50.554 L 257.720 51.000 261.431 51.000 L 265.141 51.000 265.638 50.582 C 265.911 50.352,266.287 49.870,266.475 49.511 C 266.662 49.152,266.887 48.721,266.976 48.554 C 267.064 48.387,267.418 47.688,267.762 47.000 C 268.352 45.824,268.499 45.528,268.869 44.779 C 270.594 41.279,271.050 40.362,271.205 40.083 C 271.307 39.900,271.850 38.839,272.411 37.726 C 273.899 34.776,274.930 34.162,276.531 35.271 C 277.512 35.952,277.498 35.742,277.499 49.465 C 277.500 63.752,277.417 62.900,278.878 63.629 C 280.169 64.275,289.000 64.147,289.000 63.484 C 289.000 63.401,289.111 63.333,289.246 63.333 C 289.381 63.333,289.644 63.000,289.829 62.592 C 290.322 61.511,290.366 2.814,289.875 1.837 C 289.219 0.531,289.069 0.500,283.517 0.500 C 276.917 0.501,278.095 -0.407,274.221 7.667 C 273.803 8.537,273.099 10.000,272.657 10.917 C 272.214 11.833,271.332 13.671,270.695 15.000 C 267.919 20.799,265.154 26.533,263.964 28.963 C 262.789 31.362,261.902 31.926,260.437 31.209 C 259.688 30.843,259.755 30.960,256.791 24.833 C 256.104 23.412,254.960 21.050,254.250 19.583 C 253.539 18.117,252.325 15.604,251.551 14.000 C 250.777 12.396,249.699 10.165,249.155 9.042 C 248.611 7.919,247.707 6.044,247.144 4.875 C 244.840 0.087,245.752 0.595,239.356 0.535 L 234.236 0.487 233.660 0.874 M302.569 0.815 C 302.285 0.988,301.892 1.335,301.694 1.587 L 301.333 2.045 301.333 32.128 C 301.333 66.283,301.184 62.909,302.726 63.655 C 303.788 64.169,340.638 64.195,341.766 63.682 C 343.162 63.049,343.243 62.773,343.300 58.469 C 343.358 54.164,343.258 53.728,342.047 52.975 L 341.417 52.583 328.309 52.500 C 313.510 52.406,314.814 52.536,314.147 51.083 C 313.651 50.003,313.677 39.995,314.179 38.928 C 314.837 37.529,314.261 37.595,326.591 37.500 C 340.276 37.395,338.880 38.073,338.800 31.568 L 338.750 27.499 338.095 26.916 L 337.439 26.333 326.578 26.333 L 315.717 26.333 315.044 25.846 C 313.858 24.987,313.808 24.683,313.866 18.661 C 313.942 10.826,312.139 11.667,328.863 11.667 L 341.773 11.667 342.377 11.125 C 343.275 10.320,343.333 10.014,343.333 6.083 C 343.333 1.874,343.209 1.406,341.911 0.733 C 341.106 0.315,303.258 0.394,302.569 0.815 M355.733 0.738 C 354.554 1.251,354.417 1.802,354.417 6.000 C 354.417 11.990,353.787 11.557,362.659 11.667 L 369.417 11.750 369.950 12.151 C 371.068 12.989,371.000 11.318,371.000 37.962 C 371.001 65.219,370.878 62.862,372.333 63.625 C 373.075 64.013,373.134 64.017,377.513 63.967 L 381.943 63.917 382.532 63.468 C 383.758 62.532,383.667 64.624,383.667 37.529 L 383.667 13.192 384.103 12.673 C 384.962 11.653,384.853 11.667,392.095 11.667 L 398.706 11.667 399.353 11.020 L 400.000 10.373 400.000 6.125 C 400.000 1.422,399.983 1.345,398.827 0.747 C 398.144 0.393,356.544 0.385,355.733 0.738 M84.107 11.427 C 85.410 11.687,87.833 12.613,87.833 12.852 C 87.833 12.921,87.965 13.020,88.125 13.071 C 88.433 13.170,90.167 14.769,90.167 14.954 C 90.167 15.013,90.306 15.217,90.476 15.406 C 92.321 17.456,92.928 21.759,92.900 32.583 C 92.877 41.724,92.364 46.233,91.165 47.868 C 90.982 48.117,90.833 48.371,90.833 48.433 C 90.833 48.989,88.124 51.508,86.937 52.056 C 80.494 55.028,73.447 51.797,71.913 45.167 C 70.941 40.968,70.959 23.608,71.939 19.271 C 72.494 16.815,73.903 14.294,75.016 13.766 C 75.191 13.683,75.333 13.559,75.333 13.490 C 75.333 13.421,75.690 13.153,76.125 12.894 C 78.668 11.380,81.373 10.883,84.107 11.427 M202.026 12.214 C 202.819 12.468,203.559 12.787,203.671 12.922 C 203.783 13.056,203.962 13.167,204.070 13.167 C 204.534 13.167,206.406 15.210,206.896 16.252 C 208.795 20.295,207.125 25.288,203.250 27.152 C 201.522 27.983,200.046 28.154,194.532 28.161 C 188.864 28.168,188.499 28.106,187.814 27.026 L 187.333 26.268 187.334 19.926 C 187.335 12.640,187.352 12.554,188.994 11.799 C 189.135 11.735,191.800 11.697,194.917 11.716 L 200.583 11.750 202.026 12.214 " stroke="none" fill="#24245c" fill-rule="evenodd"></path><path id="path3" d="M153.235 95.904 C 148.896 97.793,151.642 104.513,156.158 103.055 C 158.765 102.213,159.585 98.567,157.624 96.540 C 156.798 95.686,154.500 95.353,153.235 95.904 M211.332 116.989 C 207.502 118.154,207.412 123.316,211.203 124.443 C 214.266 125.354,217.045 122.644,216.066 119.701 C 215.374 117.619,213.253 116.405,211.332 116.989 M97.732 117.186 C 95.945 117.597,94.610 119.724,95.026 121.499 C 95.123 121.912,95.222 122.362,95.246 122.500 C 95.332 122.990,95.541 123.500,95.655 123.500 C 95.718 123.500,95.950 123.669,96.170 123.875 C 97.267 124.903,99.917 124.925,101.176 123.917 C 104.305 121.412,101.679 116.278,97.732 117.186 " stroke="none" fill="#ec4434" fill-rule="evenodd"></path><path id="path4" d="M191.000 92.807 C 191.000 92.884,190.719 93.040,190.375 93.153 C 187.314 94.165,187.165 98.749,190.151 100.029 C 194.190 101.760,197.375 97.585,194.720 94.039 C 193.995 93.071,191.000 92.079,191.000 92.807 M246.832 116.989 C 242.496 118.308,243.093 124.393,247.561 124.411 C 249.648 124.420,250.789 123.777,251.436 122.228 C 252.572 119.512,249.612 116.144,246.832 116.989 " stroke="none" fill="#643494" fill-rule="evenodd"></path><path id="path5" d="M250.333 117.917 C 250.644 118.237,250.936 118.500,250.982 118.500 C 251.028 118.500,250.811 118.237,250.500 117.917 C 250.189 117.596,249.897 117.333,249.851 117.333 C 249.805 117.333,250.022 117.596,250.333 117.917 " stroke="none" fill="#84548c" fill-rule="evenodd"></path><path id="path6" d="" stroke="none" fill="#304c78" fill-rule="evenodd"></path><path id="path7" d="" stroke="none" fill="#305040" fill-rule="evenodd"></path><path id="path8" d="" stroke="none" fill="#402440" fill-rule="evenodd"></path><path id="path0" d="M181.750 81.738 C 181.658 81.774,181.388 81.847,181.148 81.899 C 180.563 82.028,179.464 83.090,179.024 83.952 C 178.688 84.611,178.667 84.892,178.667 88.645 L 178.667 92.637 176.875 92.694 C 170.912 92.881,170.942 100.500,176.906 100.500 L 178.651 100.500 178.704 108.208 C 178.754 115.694,178.767 115.950,179.134 117.083 C 180.813 122.261,183.949 124.388,189.930 124.407 L 193.109 124.417 193.909 123.917 C 195.284 123.056,195.745 122.229,195.748 120.612 C 195.750 119.307,195.469 118.167,195.146 118.167 C 195.066 118.167,195.000 118.053,195.000 117.913 C 195.000 117.774,194.813 117.574,194.583 117.470 C 194.354 117.365,194.167 117.226,194.167 117.160 C 194.167 116.800,192.964 116.605,190.678 116.595 C 186.487 116.575,186.599 116.820,186.535 107.542 L 186.486 100.500 188.693 100.500 L 190.899 100.500 190.028 100.066 C 187.075 98.594,187.156 94.525,190.167 93.104 L 190.917 92.750 188.708 92.703 L 186.500 92.657 186.499 88.703 C 186.498 83.799,186.330 83.213,184.608 82.084 C 184.260 81.856,182.109 81.596,181.750 81.738 M314.546 81.828 C 313.531 82.070,312.521 82.942,312.035 83.998 C 311.817 84.472,311.754 85.352,311.703 88.625 L 311.641 92.667 310.148 92.667 C 307.274 92.667,305.719 94.023,305.679 96.564 C 305.639 99.134,307.161 100.500,310.065 100.500 L 311.640 100.500 311.715 107.958 C 311.795 115.995,311.850 116.565,312.743 118.583 C 313.546 120.399,315.019 122.141,316.333 122.831 C 316.563 122.952,316.794 123.117,316.847 123.198 C 317.210 123.751,319.803 124.358,322.208 124.453 C 324.747 124.554,325.205 124.474,323.926 124.152 C 320.429 123.271,320.213 118.691,323.583 116.858 C 323.850 116.713,323.683 116.676,322.742 116.672 C 319.781 116.659,319.667 116.315,319.667 107.387 L 319.667 100.500 322.876 100.500 L 326.085 100.500 326.955 99.958 C 327.433 99.660,327.826 99.357,327.829 99.285 C 327.831 99.212,327.983 98.950,328.165 98.702 C 329.137 97.379,328.428 93.500,327.214 93.500 C 327.096 93.500,327.000 93.439,327.000 93.364 C 327.000 92.867,325.779 92.667,322.755 92.667 L 319.688 92.667 319.636 88.542 C 319.586 84.653,319.562 84.377,319.213 83.724 C 318.354 82.117,316.500 81.364,314.546 81.828 M118.333 82.098 C 115.604 83.083,114.453 85.346,115.490 87.687 C 117.521 92.272,124.429 89.368,122.777 84.625 C 122.191 82.942,119.785 81.574,118.333 82.098 M246.647 82.221 C 244.802 82.909,243.960 83.979,243.864 85.758 C 243.792 87.085,244.262 88.436,244.950 88.879 C 245.060 88.949,245.269 89.126,245.415 89.272 C 246.379 90.236,249.188 90.144,250.351 89.110 C 253.479 86.329,250.497 80.784,246.647 82.221 M94.841 91.276 L 94.833 95.635 93.699 95.077 C 88.917 92.721,82.792 92.951,78.583 95.645 C 76.782 96.798,73.833 99.685,73.833 100.296 C 73.833 100.393,73.769 100.497,73.689 100.528 C 73.461 100.616,72.397 102.654,72.008 103.750 C 70.599 107.718,70.943 113.140,72.822 116.583 C 73.495 117.818,74.197 118.909,74.358 118.972 C 74.436 119.003,74.500 119.132,74.500 119.260 C 74.500 119.388,74.688 119.615,74.917 119.765 C 75.146 119.915,75.333 120.142,75.333 120.269 C 75.333 120.396,75.390 120.501,75.458 120.502 C 75.527 120.503,75.921 120.822,76.333 121.210 C 76.746 121.598,77.205 121.991,77.353 122.083 C 77.501 122.175,77.839 122.393,78.103 122.568 C 79.547 123.526,79.781 123.667,79.926 123.668 C 80.012 123.668,80.303 123.783,80.572 123.924 C 80.841 124.064,81.329 124.246,81.656 124.328 C 81.983 124.410,82.662 124.600,83.167 124.750 C 84.495 125.147,87.808 125.256,89.167 124.949 C 91.075 124.516,92.392 124.136,92.742 123.916 C 92.930 123.798,93.265 123.647,93.487 123.580 C 93.709 123.514,93.972 123.389,94.071 123.303 C 94.169 123.217,94.485 123.008,94.771 122.838 L 95.292 122.530 95.069 121.670 C 93.890 117.125,100.686 115.216,102.270 119.648 C 102.449 120.147,102.484 117.411,102.476 103.667 C 102.468 91.254,102.419 87.230,102.281 87.665 C 101.260 90.870,96.226 90.774,95.066 87.527 C 94.876 86.995,94.847 87.479,94.841 91.276 M277.750 93.093 C 277.200 93.220,276.404 93.397,275.981 93.487 C 274.565 93.787,270.677 95.808,270.283 96.449 C 270.210 96.569,270.071 96.667,269.975 96.667 C 269.495 96.667,266.333 100.432,266.333 101.003 C 266.333 101.093,266.267 101.167,266.187 101.167 C 266.106 101.167,265.950 101.410,265.840 101.708 C 265.729 102.006,265.465 102.662,265.253 103.167 C 264.258 105.529,263.897 110.012,264.528 112.167 C 264.675 112.671,264.841 113.332,264.896 113.635 C 265.267 115.690,269.114 121.333,270.143 121.333 C 270.248 121.333,270.333 121.398,270.333 121.476 C 270.333 121.798,273.044 123.331,275.083 124.163 C 279.187 125.837,286.731 124.942,289.797 122.419 C 289.954 122.289,290.454 121.931,290.907 121.623 C 293.275 120.015,293.624 117.087,291.680 115.142 C 290.357 113.817,287.885 113.780,286.292 115.061 C 282.614 118.020,277.776 117.812,274.565 114.557 C 267.146 107.036,278.127 96.106,286.333 102.844 C 289.561 105.494,293.871 103.021,292.953 99.044 C 292.659 97.774,290.009 95.022,289.054 94.996 C 288.978 94.994,288.729 94.846,288.500 94.667 C 288.271 94.487,287.965 94.339,287.820 94.337 C 287.675 94.335,287.188 94.146,286.737 93.917 C 286.286 93.689,285.797 93.501,285.652 93.501 C 285.506 93.500,284.800 93.350,284.083 93.167 C 282.523 92.768,279.318 92.730,277.750 93.093 M144.667 93.492 C 142.352 93.843,138.333 96.157,138.333 97.139 C 138.333 97.246,138.264 97.333,138.178 97.333 C 137.855 97.333,136.800 99.879,136.631 101.063 C 136.254 103.717,137.129 108.167,138.028 108.167 C 138.110 108.167,138.231 108.308,138.297 108.480 C 138.425 108.816,140.084 110.227,140.914 110.707 C 141.706 111.164,143.527 112.000,143.731 112.000 C 143.833 112.000,144.329 112.157,144.833 112.349 C 145.337 112.540,146.125 112.764,146.583 112.845 C 150.406 113.521,152.638 114.805,151.994 115.958 C 150.794 118.105,146.159 117.686,141.750 115.033 C 139.920 113.932,137.995 114.157,136.519 115.644 C 135.655 116.516,135.215 119.115,135.829 119.729 C 135.923 119.823,136.000 120.018,136.000 120.163 C 136.000 120.496,136.980 121.514,137.608 121.834 C 137.869 121.967,138.315 122.247,138.599 122.455 C 138.883 122.663,139.203 122.833,139.311 122.833 C 139.418 122.833,139.804 123.021,140.167 123.250 C 140.530 123.479,140.907 123.667,141.005 123.667 C 141.103 123.667,141.414 123.786,141.696 123.932 C 146.913 126.630,156.482 124.778,158.561 120.668 C 158.677 120.438,158.855 120.100,158.955 119.917 C 160.445 117.207,160.333 112.416,158.739 110.654 C 158.607 110.509,158.500 110.324,158.500 110.243 C 158.500 110.048,156.925 108.595,156.083 108.015 C 155.132 107.359,152.452 106.110,151.560 105.907 C 151.298 105.847,150.498 105.619,149.783 105.399 C 149.068 105.180,148.318 105.000,148.116 105.001 C 146.550 105.004,144.349 103.596,144.459 102.660 C 144.681 100.772,149.234 100.662,152.045 102.476 C 152.942 103.056,152.974 102.824,152.119 101.944 C 149.624 99.378,151.560 95.507,155.245 95.693 C 156.643 95.764,156.588 95.687,154.667 94.879 C 151.482 93.540,147.754 93.023,144.667 93.492 M211.417 93.669 C 209.997 94.116,209.365 94.658,208.710 95.990 L 208.336 96.750 208.343 108.417 L 208.349 120.083 208.776 119.250 C 210.460 115.969,214.900 116.123,216.005 119.500 C 216.231 120.193,216.257 119.708,216.344 113.167 C 216.399 109.089,216.512 105.836,216.611 105.500 C 217.314 103.114,219.189 101.500,221.257 101.500 C 221.974 101.500,225.092 102.115,225.510 102.339 C 226.065 102.635,225.864 102.398,225.176 101.943 C 222.282 100.027,223.582 95.000,226.971 95.000 C 227.715 95.000,228.031 94.752,227.501 94.584 C 225.133 93.832,220.866 93.446,219.083 93.822 C 217.650 94.124,216.248 94.548,215.876 94.792 C 215.517 95.027,215.461 95.021,215.173 94.712 C 214.401 93.883,212.453 93.343,211.417 93.669 M117.345 94.044 C 115.059 95.198,115.167 94.453,115.167 109.085 L 115.167 121.521 115.596 122.427 C 116.994 125.384,121.695 125.152,122.766 122.073 C 123.114 121.075,123.108 97.180,122.760 96.194 C 122.000 94.040,119.399 93.007,117.345 94.044 M246.083 94.027 C 245.185 94.493,244.868 94.785,244.308 95.658 L 243.833 96.399 243.846 108.241 C 243.858 118.735,243.887 120.007,244.099 119.410 C 245.321 115.969,250.548 116.013,251.470 119.473 C 251.580 119.887,251.638 116.286,251.649 108.285 C 251.666 96.984,251.653 96.461,251.349 95.868 C 250.368 93.962,247.884 93.093,246.083 94.027 M88.292 101.507 C 88.774 101.613,89.209 101.768,89.260 101.850 C 89.311 101.933,89.504 102.000,89.688 102.000 C 90.974 102.000,93.639 105.269,94.105 107.417 C 95.770 115.098,87.176 120.256,81.444 115.015 C 79.289 113.045,78.371 108.815,79.557 106.317 C 79.801 105.804,80.000 105.304,80.000 105.206 C 80.000 105.108,80.056 105.003,80.125 104.972 C 80.194 104.942,80.537 104.559,80.889 104.122 C 82.004 102.734,83.939 101.672,85.945 101.345 C 86.813 101.204,86.964 101.214,88.292 101.507 " stroke="none" fill="#e4c279" fill-rule="evenodd"></path><path id="path1" d="M97.144 82.580 C 93.262 84.008,94.535 89.981,98.725 89.996 C 102.845 90.012,104.068 84.161,100.271 82.599 C 99.498 82.281,97.982 82.272,97.144 82.580 M225.750 95.276 C 222.979 96.732,222.790 100.228,225.383 102.061 C 228.539 104.293,232.614 100.641,230.937 97.083 C 230.560 96.282,230.229 95.911,229.338 95.288 C 228.787 94.903,226.475 94.895,225.750 95.276 M323.926 116.741 C 319.747 118.277,320.547 123.976,324.987 124.294 C 328.884 124.573,330.489 119.336,327.167 117.181 C 326.230 116.573,324.882 116.390,323.926 116.741 " stroke="none" fill="#0da4c3" fill-rule="evenodd"></path><path id="path2" d="M17.917 0.418 C 15.132 1.108,13.081 1.832,12.000 2.507 C 11.862 2.593,11.458 2.821,11.101 3.014 C 8.659 4.334,3.833 8.725,3.833 9.628 C 3.833 9.718,3.713 9.892,3.566 10.014 C 2.107 11.225,0.744 16.268,0.167 22.583 C -0.049 24.962,-0.049 39.371,0.167 41.750 C 0.776 48.423,1.792 52.035,3.825 54.750 C 4.099 55.117,4.457 55.603,4.620 55.830 C 5.628 57.235,10.011 61.000,10.638 61.000 C 10.730 61.000,10.831 61.064,10.861 61.142 C 11.007 61.514,14.425 63.021,16.250 63.517 C 18.272 64.066,18.692 64.135,21.167 64.323 C 25.199 64.629,29.270 64.145,32.500 62.975 C 33.745 62.524,35.362 61.806,35.667 61.568 C 35.804 61.461,36.171 61.244,36.483 61.086 C 38.318 60.156,41.466 57.310,43.029 55.167 C 44.137 53.648,45.833 50.435,45.833 49.855 C 45.833 49.781,46.011 49.127,46.229 48.402 C 47.075 45.578,47.226 43.924,47.294 36.714 L 47.357 30.012 46.690 29.298 L 46.024 28.583 35.279 28.583 L 24.535 28.583 23.934 29.220 L 23.333 29.857 23.333 33.814 L 23.333 37.771 23.792 38.198 C 24.621 38.972,24.793 39.000,28.665 39.000 C 34.232 39.000,34.750 39.254,34.750 41.987 C 34.750 45.686,32.636 49.887,30.082 51.262 C 29.762 51.435,29.500 51.634,29.500 51.705 C 29.500 51.775,29.399 51.833,29.276 51.833 C 29.152 51.833,28.796 51.963,28.484 52.121 C 24.759 54.006,19.005 53.264,16.219 50.538 C 13.039 47.426,12.578 45.103,12.593 32.250 C 12.608 18.737,13.307 15.895,17.333 12.973 C 21.884 9.672,30.314 11.297,32.778 15.952 C 33.354 17.040,33.493 17.320,33.833 18.083 C 34.875 20.425,34.611 20.333,40.267 20.333 C 46.127 20.333,46.667 20.124,46.667 17.854 C 46.667 16.641,46.245 15.355,44.856 12.333 C 44.456 11.463,43.403 9.675,43.071 9.304 C 42.881 9.091,42.457 8.542,42.129 8.083 C 41.479 7.175,39.806 5.521,38.750 4.743 C 38.383 4.473,38.046 4.214,38.000 4.168 C 36.910 3.066,32.879 1.329,29.417 0.470 C 26.995 -0.131,20.255 -0.162,17.917 0.418 M78.000 0.112 C 73.789 0.909,69.351 2.752,67.515 4.464 C 67.347 4.621,66.956 4.938,66.647 5.167 C 65.960 5.677,63.000 8.642,63.000 8.820 C 63.000 8.891,62.844 9.129,62.653 9.349 C 59.574 12.900,58.603 18.271,58.591 31.833 C 58.581 43.044,59.001 47.530,60.354 50.649 C 60.872 51.844,62.231 54.538,62.417 54.737 C 62.508 54.836,62.806 55.217,63.077 55.583 C 68.237 62.548,79.096 66.133,88.000 63.811 C 88.688 63.632,89.438 63.444,89.667 63.393 C 90.931 63.110,94.503 61.410,95.531 60.602 C 95.778 60.408,96.340 59.988,96.781 59.669 C 98.253 58.602,101.667 55.014,101.667 54.534 C 101.667 54.446,101.763 54.294,101.880 54.197 C 102.244 53.895,104.000 50.234,104.000 49.778 C 104.000 49.654,104.145 49.131,104.322 48.616 C 106.104 43.436,106.150 22.567,104.394 16.000 C 103.801 13.781,102.436 10.597,101.880 10.136 C 101.763 10.039,101.667 9.884,101.667 9.792 C 101.667 9.699,101.141 8.999,100.498 8.236 C 99.512 7.066,98.744 6.334,96.333 4.273 C 96.196 4.155,95.784 3.877,95.419 3.655 C 92.608 1.943,91.317 1.400,87.833 0.470 C 86.457 0.102,79.407 -0.155,78.000 0.112 M117.977 0.526 C 117.612 0.738,117.228 1.163,117.013 1.593 L 116.656 2.308 116.706 23.446 C 116.752 43.220,116.775 44.680,117.063 46.083 C 117.640 48.899,118.180 50.452,119.379 52.750 C 120.334 54.580,121.414 56.007,123.054 57.605 C 124.412 58.929,126.175 60.333,126.479 60.333 C 126.567 60.333,126.664 60.402,126.694 60.486 C 126.791 60.750,130.358 62.442,131.750 62.884 C 137.409 64.679,143.208 64.648,148.750 62.793 C 149.575 62.517,150.438 62.197,150.667 62.083 C 150.896 61.969,151.346 61.754,151.667 61.606 C 152.350 61.289,152.486 61.208,154.272 60.050 C 155.867 59.017,157.815 57.242,158.848 55.884 C 159.252 55.352,159.621 54.879,159.668 54.833 C 160.157 54.356,162.333 50.066,162.333 49.580 C 162.333 49.451,162.478 48.978,162.655 48.529 C 162.832 48.080,163.021 47.383,163.075 46.981 C 163.129 46.579,163.265 45.725,163.378 45.083 C 163.780 42.801,163.664 2.207,163.254 1.445 C 163.073 1.109,162.872 0.833,162.807 0.833 C 162.743 0.833,162.559 0.702,162.399 0.542 C 161.883 0.026,152.759 0.105,152.091 0.631 C 151.002 1.487,151.093 -0.338,150.985 22.833 C 150.920 36.621,150.826 44.176,150.711 44.667 C 150.469 45.707,149.986 46.965,149.542 47.718 C 149.335 48.067,149.167 48.386,149.167 48.428 C 149.167 48.726,147.341 50.517,146.354 51.188 C 143.965 52.812,137.497 53.430,135.931 52.185 C 135.831 52.106,135.563 51.986,135.333 51.918 C 133.535 51.389,131.317 49.048,130.313 46.620 C 129.349 44.288,129.340 44.060,129.336 22.033 C 129.333 -0.216,129.418 1.410,128.210 0.588 L 127.589 0.167 123.086 0.170 C 118.811 0.174,118.553 0.192,117.977 0.526 M176.018 0.752 C 175.798 0.873,175.445 1.184,175.232 1.444 L 174.845 1.917 174.839 32.151 L 174.833 62.385 175.247 62.928 C 176.010 63.928,176.566 64.023,181.350 63.967 L 185.609 63.917 186.296 63.462 C 187.346 62.766,187.331 62.934,187.332 51.189 C 187.334 37.723,186.941 38.784,191.959 38.698 C 196.455 38.621,195.339 37.341,201.156 49.250 C 201.962 50.900,203.486 54.012,204.542 56.167 C 205.598 58.321,206.782 60.746,207.172 61.555 C 207.732 62.717,208.023 63.121,208.553 63.472 L 209.225 63.917 214.071 63.969 C 219.474 64.027,219.851 63.975,220.748 63.052 C 221.349 62.433,221.616 60.692,221.180 60.242 C 221.096 60.155,220.179 58.433,219.143 56.417 C 218.108 54.400,216.883 52.023,216.422 51.135 C 215.559 49.472,213.909 46.285,212.470 43.500 C 212.020 42.629,211.205 41.058,210.659 40.009 C 209.611 37.994,209.518 37.603,209.911 36.845 C 210.164 36.354,211.077 35.500,211.347 35.500 C 211.963 35.500,216.667 31.564,216.667 31.048 C 216.667 30.945,216.730 30.836,216.807 30.806 C 217.294 30.612,218.640 28.144,219.381 26.083 C 220.614 22.658,220.584 16.635,219.319 13.333 C 218.692 11.700,218.128 10.422,217.920 10.167 C 217.808 10.029,217.541 9.598,217.327 9.208 C 217.114 8.819,216.877 8.500,216.803 8.500 C 216.728 8.500,216.667 8.403,216.667 8.284 C 216.667 7.817,213.368 4.659,211.964 3.782 C 210.285 2.734,207.668 1.500,207.125 1.500 C 206.988 1.500,206.549 1.385,206.150 1.244 C 204.051 0.503,177.266 0.066,176.018 0.752 M233.660 0.874 C 232.393 1.726,232.491 -1.034,232.540 32.376 C 232.583 61.920,232.587 62.256,232.917 62.791 C 233.100 63.088,233.319 63.332,233.404 63.332 C 233.488 63.333,233.702 63.465,233.879 63.625 C 234.452 64.144,242.734 64.156,243.769 63.639 C 245.253 62.898,245.167 63.774,245.167 49.464 C 245.167 34.483,245.113 34.825,247.481 34.839 C 248.780 34.846,248.989 35.081,250.716 38.478 C 251.522 40.064,252.246 41.486,252.326 41.639 C 252.405 41.792,252.939 42.854,253.511 44.000 C 256.364 49.708,256.589 50.112,257.152 50.554 L 257.720 51.000 261.431 51.000 L 265.141 51.000 265.638 50.582 C 265.911 50.352,266.287 49.870,266.475 49.511 C 266.662 49.152,266.887 48.721,266.976 48.554 C 267.064 48.387,267.418 47.688,267.762 47.000 C 268.352 45.824,268.499 45.528,268.869 44.779 C 270.594 41.279,271.050 40.362,271.205 40.083 C 271.307 39.900,271.850 38.839,272.411 37.726 C 273.899 34.776,274.930 34.162,276.531 35.271 C 277.512 35.952,277.498 35.742,277.499 49.465 C 277.500 63.752,277.417 62.900,278.878 63.629 C 280.169 64.275,289.000 64.147,289.000 63.484 C 289.000 63.401,289.111 63.333,289.246 63.333 C 289.381 63.333,289.644 63.000,289.829 62.592 C 290.322 61.511,290.366 2.814,289.875 1.837 C 289.219 0.531,289.069 0.500,283.517 0.500 C 276.917 0.501,278.095 -0.407,274.221 7.667 C 273.803 8.537,273.099 10.000,272.657 10.917 C 272.214 11.833,271.332 13.671,270.695 15.000 C 267.919 20.799,265.154 26.533,263.964 28.963 C 262.789 31.362,261.902 31.926,260.437 31.209 C 259.688 30.843,259.755 30.960,256.791 24.833 C 256.104 23.412,254.960 21.050,254.250 19.583 C 253.539 18.117,252.325 15.604,251.551 14.000 C 250.777 12.396,249.699 10.165,249.155 9.042 C 248.611 7.919,247.707 6.044,247.144 4.875 C 244.840 0.087,245.752 0.595,239.356 0.535 L 234.236 0.487 233.660 0.874 M302.569 0.815 C 302.285 0.988,301.892 1.335,301.694 1.587 L 301.333 2.045 301.333 32.128 C 301.333 66.283,301.184 62.909,302.726 63.655 C 303.788 64.169,340.638 64.195,341.766 63.682 C 343.162 63.049,343.243 62.773,343.300 58.469 C 343.358 54.164,343.258 53.728,342.047 52.975 L 341.417 52.583 328.309 52.500 C 313.510 52.406,314.814 52.536,314.147 51.083 C 313.651 50.003,313.677 39.995,314.179 38.928 C 314.837 37.529,314.261 37.595,326.591 37.500 C 340.276 37.395,338.880 38.073,338.800 31.568 L 338.750 27.499 338.095 26.916 L 337.439 26.333 326.578 26.333 L 315.717 26.333 315.044 25.846 C 313.858 24.987,313.808 24.683,313.866 18.661 C 313.942 10.826,312.139 11.667,328.863 11.667 L 341.773 11.667 342.377 11.125 C 343.275 10.320,343.333 10.014,343.333 6.083 C 343.333 1.874,343.209 1.406,341.911 0.733 C 341.106 0.315,303.258 0.394,302.569 0.815 M355.733 0.738 C 354.554 1.251,354.417 1.802,354.417 6.000 C 354.417 11.990,353.787 11.557,362.659 11.667 L 369.417 11.750 369.950 12.151 C 371.068 12.989,371.000 11.318,371.000 37.962 C 371.001 65.219,370.878 62.862,372.333 63.625 C 373.075 64.013,373.134 64.017,377.513 63.967 L 381.943 63.917 382.532 63.468 C 383.758 62.532,383.667 64.624,383.667 37.529 L 383.667 13.192 384.103 12.673 C 384.962 11.653,384.853 11.667,392.095 11.667 L 398.706 11.667 399.353 11.020 L 400.000 10.373 400.000 6.125 C 400.000 1.422,399.983 1.345,398.827 0.747 C 398.144 0.393,356.544 0.385,355.733 0.738 M84.107 11.427 C 85.410 11.687,87.833 12.613,87.833 12.852 C 87.833 12.921,87.965 13.020,88.125 13.071 C 88.433 13.170,90.167 14.769,90.167 14.954 C 90.167 15.013,90.306 15.217,90.476 15.406 C 92.321 17.456,92.928 21.759,92.900 32.583 C 92.877 41.724,92.364 46.233,91.165 47.868 C 90.982 48.117,90.833 48.371,90.833 48.433 C 90.833 48.989,88.124 51.508,86.937 52.056 C 80.494 55.028,73.447 51.797,71.913 45.167 C 70.941 40.968,70.959 23.608,71.939 19.271 C 72.494 16.815,73.903 14.294,75.016 13.766 C 75.191 13.683,75.333 13.559,75.333 13.490 C 75.333 13.421,75.690 13.153,76.125 12.894 C 78.668 11.380,81.373 10.883,84.107 11.427 M202.026 12.214 C 202.819 12.468,203.559 12.787,203.671 12.922 C 203.783 13.056,203.962 13.167,204.070 13.167 C 204.534 13.167,206.406 15.210,206.896 16.252 C 208.795 20.295,207.125 25.288,203.250 27.152 C 201.522 27.983,200.046 28.154,194.532 28.161 C 188.864 28.168,188.499 28.106,187.814 27.026 L 187.333 26.268 187.334 19.926 C 187.335 12.640,187.352 12.554,188.994 11.799 C 189.135 11.735,191.800 11.697,194.917 11.716 L 200.583 11.750 202.026 12.214 " stroke="none" fill="#24245c" fill-rule="evenodd"></path><path id="path3" d="M153.235 95.904 C 148.896 97.793,151.642 104.513,156.158 103.055 C 158.765 102.213,159.585 98.567,157.624 96.540 C 156.798 95.686,154.500 95.353,153.235 95.904 M211.332 116.989 C 207.502 118.154,207.412 123.316,211.203 124.443 C 214.266 125.354,217.045 122.644,216.066 119.701 C 215.374 117.619,213.253 116.405,211.332 116.989 M97.732 117.186 C 95.945 117.597,94.610 119.724,95.026 121.499 C 95.123 121.912,95.222 122.362,95.246 122.500 C 95.332 122.990,95.541 123.500,95.655 123.500 C 95.718 123.500,95.950 123.669,96.170 123.875 C 97.267 124.903,99.917 124.925,101.176 123.917 C 104.305 121.412,101.679 116.278,97.732 117.186 " stroke="none" fill="#ec4434" fill-rule="evenodd"></path><path id="path4" d="M191.000 92.807 C 191.000 92.884,190.719 93.040,190.375 93.153 C 187.314 94.165,187.165 98.749,190.151 100.029 C 194.190 101.760,197.375 97.585,194.720 94.039 C 193.995 93.071,191.000 92.079,191.000 92.807 M246.832 116.989 C 242.496 118.308,243.093 124.393,247.561 124.411 C 249.648 124.420,250.789 123.777,251.436 122.228 C 252.572 119.512,249.612 116.144,246.832 116.989 " stroke="none" fill="#643494" fill-rule="evenodd"></path><path id="path5" d="M250.333 117.917 C 250.644 118.237,250.936 118.500,250.982 118.500 C 251.028 118.500,250.811 118.237,250.500 117.917 C 250.189 117.596,249.897 117.333,249.851 117.333 C 249.805 117.333,250.022 117.596,250.333 117.917 " stroke="none" fill="#84548c" fill-rule="evenodd"></path><path id="path6" d="" stroke="none" fill="#304c78" fill-rule="evenodd"></path><path id="path7" d="" stroke="none" fill="#305040" fill-rule="evenodd"></path><path id="path8" d="" stroke="none" fill="#402440" fill-rule="evenodd"></path></g></svg>